<?xml version="1.0" ?>
<svg xmlns:inkscape="http://www.inkscape.org/namespaces/inkscape" xmlns:sodipodi="http://sodipodi.sourceforge.net/DTD/sodipodi-0.dtd" xmlns="http://www.w3.org/2000/svg" width="512" height="512" viewBox="0 0 512 512" version="1.1" id="svg_1" sodipodi:docname="Cat2O (Liquid)" inkscape:export-xdpi="96" inkscape:export-ydpi="96" style="fill: none; stroke: none">
   <defs>
      <linearGradient x1="97.959" y1="-12.386" x2="-173.926" y2="38.698" id="Gradient_tail3" inkscape:label="Gradient_tail3" gradientUnits="userSpaceOnUse">
         <stop offset="0%" stop-color="rgb(0, 173, 250)" stop-opacity="1"/>
         <stop offset="55.1%" stop-color="rgb(0, 194, 252)" stop-opacity="1"/>
         <stop offset="99.9%" stop-color="rgb(0, 215, 254)" stop-opacity="1"/>
      </linearGradient>
      <linearGradient x1="97.959" y1="-12.386" x2="-173.926" y2="38.698" id="linearGradient_9" inkscape:label="Gradient_tail3" gradientUnits="userSpaceOnUse">
         <stop offset="0%" stop-color="rgb(0, 173, 250)" stop-opacity="1"/>
         <stop offset="55.1%" stop-color="rgb(0, 194, 252)" stop-opacity="1"/>
         <stop offset="99.9%" stop-color="rgb(0, 215, 254)" stop-opacity="1"/>
      </linearGradient>
      <linearGradient x1="-30.4" y1="-0.604" x2="29.228" y2="-0.604" id="Gradient_tail2" inkscape:label="Gradient_tail2" gradientUnits="userSpaceOnUse">
         <stop offset="31.0%" stop-color="rgb(255, 255, 255)" stop-opacity="0"/>
         <stop offset="69.0%" stop-color="rgb(255, 255, 255)" stop-opacity="0.5"/>
         <stop offset="100%" stop-color="rgb(255, 255, 255)" stop-opacity="1"/>
      </linearGradient>
      <linearGradient x1="190.181" y1="-20.141" x2="-121.754" y2="31.765" id="Gradient_tail1" inkscape:label="Gradient_tail1" gradientUnits="userSpaceOnUse">
         <stop offset="48.4%" stop-color="rgb(0, 98, 155)" stop-opacity="1"/>
         <stop offset="76.8%" stop-color="rgb(0, 126, 192)" stop-opacity="1"/>
         <stop offset="100%" stop-color="rgb(0, 154, 229)" stop-opacity="1"/>
      </linearGradient>
      <linearGradient x1="-0.621" y1="58.576" x2="-0.621" y2="-87.278" id="Gradient_body1" inkscape:label="Gradient_body1" gradientUnits="userSpaceOnUse">
         <stop offset="0%" stop-color="rgb(0, 173, 250)" stop-opacity="1"/>
         <stop offset="55.1%" stop-color="rgb(0, 194, 252)" stop-opacity="1"/>
         <stop offset="99.9%" stop-color="rgb(0, 215, 254)" stop-opacity="1"/>
      </linearGradient>
      <linearGradient x1="-0.621" y1="58.576" x2="-0.621" y2="-87.278" id="linearGradient_15" inkscape:label="Gradient_body1" gradientUnits="userSpaceOnUse">
         <stop offset="0%" stop-color="rgb(0, 173, 250)" stop-opacity="1"/>
         <stop offset="55.1%" stop-color="rgb(0, 194, 252)" stop-opacity="1"/>
         <stop offset="99.9%" stop-color="rgb(0, 215, 254)" stop-opacity="1"/>
      </linearGradient>
      <linearGradient x1="7.069" y1="119.068" x2="-20.101" y2="-102.208" id="Gradient_body2" inkscape:label="Gradient_body2" gradientUnits="userSpaceOnUse">
         <stop offset="31.0%" stop-color="rgb(255, 255, 255)" stop-opacity="0"/>
         <stop offset="69.0%" stop-color="rgb(255, 255, 255)" stop-opacity="0.5"/>
         <stop offset="100%" stop-color="rgb(255, 255, 255)" stop-opacity="1"/>
      </linearGradient>
      <linearGradient x1="-0.622" y1="140.618" x2="-0.622" y2="-142.04" id="Gradient_body3" inkscape:label="Gradient_body3" gradientUnits="userSpaceOnUse">
         <stop offset="48.4%" stop-color="rgb(0, 98, 155)" stop-opacity="1"/>
         <stop offset="76.8%" stop-color="rgb(0, 126, 192)" stop-opacity="1"/>
         <stop offset="100%" stop-color="rgb(0, 154, 229)" stop-opacity="1"/>
      </linearGradient>
      <linearGradient x1="-0.296" y1="19.879" x2="-0.296" y2="-99.411" id="Gradient_h3" inkscape:label="Gradient_h3" gradientUnits="userSpaceOnUse">
         <stop offset="0%" stop-color="rgb(0, 173, 250)" stop-opacity="1"/>
         <stop offset="55.1%" stop-color="rgb(0, 194, 252)" stop-opacity="1"/>
         <stop offset="99.9%" stop-color="rgb(0, 215, 254)" stop-opacity="1"/>
      </linearGradient>
      <linearGradient x1="-0.296" y1="19.879" x2="-0.296" y2="-99.411" id="linearGradient_23" inkscape:label="Gradient_h3" gradientUnits="userSpaceOnUse">
         <stop offset="0%" stop-color="rgb(0, 173, 250)" stop-opacity="1"/>
         <stop offset="55.1%" stop-color="rgb(0, 194, 252)" stop-opacity="1"/>
         <stop offset="99.9%" stop-color="rgb(0, 215, 254)" stop-opacity="1"/>
      </linearGradient>
      <radialGradient cx="-0.706" cy="-0.224" r="90.884" fx="-0.706" fy="-0.224" id="Gradient_h2" inkscape:label="Gradient_h2" gradientUnits="userSpaceOnUse">
         <stop offset="0%" stop-color="rgb(255, 255, 255)" stop-opacity="1"/>
         <stop offset="44.9%" stop-color="rgb(255, 255, 255)" stop-opacity="0.5"/>
         <stop offset="100%" stop-color="rgb(255, 255, 255)" stop-opacity="0"/>
      </radialGradient>
      <linearGradient x1="-0.296" y1="124.879" x2="-0.296" y2="-126.113" id="Gradient_h1" inkscape:label="Gradient_h1" gradientUnits="userSpaceOnUse">
         <stop offset="48.4%" stop-color="rgb(0, 98, 155)" stop-opacity="1"/>
         <stop offset="76.8%" stop-color="rgb(0, 126, 192)" stop-opacity="1"/>
         <stop offset="100%" stop-color="rgb(0, 154, 229)" stop-opacity="1"/>
      </linearGradient>
      <linearGradient x1="-0.145" y1="-37.634" x2="-0.145" y2="32.68" id="Gradient_eye1" inkscape:label="Gradient_eye1" gradientUnits="userSpaceOnUse">
         <stop offset="20.599999999999998%" stop-color="rgb(255, 255, 255)" stop-opacity="1"/>
         <stop offset="55.900000000000006%" stop-color="rgb(230, 230, 230)" stop-opacity="1"/>
         <stop offset="94.19999999999999%" stop-color="rgb(204, 204, 204)" stop-opacity="1"/>
      </linearGradient>
      <linearGradient x1="-0.145" y1="-37.634" x2="-0.145" y2="32.68" id="linearGradient_32" inkscape:label="Gradient_eye1" gradientUnits="userSpaceOnUse">
         <stop offset="20.599999999999998%" stop-color="rgb(255, 255, 255)" stop-opacity="1"/>
         <stop offset="55.900000000000006%" stop-color="rgb(230, 230, 230)" stop-opacity="1"/>
         <stop offset="94.19999999999999%" stop-color="rgb(204, 204, 204)" stop-opacity="1"/>
      </linearGradient>
      <linearGradient x1="-0.391" y1="-37.634" x2="-0.391" y2="32.68" id="Gradient_eye2" inkscape:label="Gradient_eye2" gradientUnits="userSpaceOnUse">
         <stop offset="20.599999999999998%" stop-color="rgb(255, 255, 255)" stop-opacity="1"/>
         <stop offset="55.900000000000006%" stop-color="rgb(230, 230, 230)" stop-opacity="1"/>
         <stop offset="94.19999999999999%" stop-color="rgb(204, 204, 204)" stop-opacity="1"/>
      </linearGradient>
      <linearGradient x1="-0.391" y1="-37.634" x2="-0.391" y2="32.68" id="linearGradient_43" inkscape:label="Gradient_eye2" gradientUnits="userSpaceOnUse">
         <stop offset="20.599999999999998%" stop-color="rgb(255, 255, 255)" stop-opacity="1"/>
         <stop offset="55.900000000000006%" stop-color="rgb(230, 230, 230)" stop-opacity="1"/>
         <stop offset="94.19999999999999%" stop-color="rgb(204, 204, 204)" stop-opacity="1"/>
      </linearGradient>
      <linearGradient x1="-0.002" y1="96.592" x2="-0.002" y2="-97.337" id="pornrnrnsr" inkscape:label="pornrnrnsr" gradientUnits="userSpaceOnUse">
         <stop offset="21.099999999999998%" stop-color="rgb(116, 85, 255)" stop-opacity="1"/>
         <stop offset="59.4%" stop-color="rgb(127, 104, 240)" stop-opacity="1"/>
         <stop offset="100%" stop-color="rgb(138, 123, 225)" stop-opacity="1"/>
      </linearGradient>
   </defs>
   <sodipodi:namedview inkscape:pagecheckerboard="true" borderlayer="true" bordercolor="#666666" pagecolor="#ffffff"/>
   <g inkscape:groupmode="layer" id="remaster" inkscape:label="remaster" transform="matrix(0.95, 0.0, 0.0, 0.95, 256.0, 256.0)" opacity="1">
      <g inkscape:groupmode="layer" id="squasherp2" inkscape:label="squasherp2" transform="matrix(1.05, 0.0, 0.0, 0.95, 22.0, -18.0)" opacity="1">
         <g inkscape:groupmode="layer" id="squsher" inkscape:label="squsher" transform="matrix(1.0, 0.0, 0.0, 1.0, 14.0, 260.0)" opacity="1">
            <g inkscape:groupmode="layer" id="armr_2" inkscape:label="armr 2" transform="matrix(0.808380475987432, -0.5886603486241729, 0.5886603486241729, 0.808380475987432, -499.6767261392455, -342.340806804772)" style="">
               <g id="Group_3" inkscape:label="Group 3" transform="matrix(1.0, 0.0, 0.0, 1.0, 234.237, 398.555)" style="fill-opacity:1.0;fill:rgb(0, 127, 187);fill-rule:nonzero">
                  <path d="M 44.212,-45.275 C 22.405000000000005,-27.796 14.699,-13.346 11.479,26.288 C 6.686999999999999,85.277 2.2560000000000002,100.007 -5.862,100.007 C -13.98,100.007 -17.403999999999996,100.007 -27.958,100.007 C -38.512,100.007 -38.259,83.024 -28.652,76.84 C -23.149,73.297 -75.52199999999999,-46.650000000000006 -35.409,-112.667 " id="Path_1" inkscape:label="Path 1" style="fill-opacity:1.0;fill:rgb(0, 127, 187);fill-rule:nonzero"/>
               </g>
               <g id="Group_1" inkscape:label="Group 1" transform="matrix(1.0, 0.0, 0.0, 1.0, 234.237, 398.555)" style="stroke:rgb(0, 70, 110);stroke-opacity:1.0;stroke-width:18.0;stroke-miterlimit:0;stroke-linecap:round;stroke-linejoin:round">
                  <path d="M 44.212,-45.275 C 22.405000000000005,-27.796 14.699,-13.346 11.479,26.288 C 6.686999999999999,85.277 2.2560000000000002,100.007 -5.862,100.007 C -13.98,100.007 -17.403999999999996,100.007 -27.958,100.007 C -38.512,100.007 -38.259,83.024 -28.652,76.84 C -23.149,73.297 -75.52199999999999,-46.650000000000006 -35.409,-112.667 " id="path_2" inkscape:label="Path 1" style=""/>
               </g>
            </g>
            <g inkscape:groupmode="layer" id="feetr_2" inkscape:label="feetr 2" transform="matrix(0.4838629069845811, 0.8751438094647248, -0.8751438094647248, 0.4838629069845811, 130.6940896004408, -755.4257290348114)" style="">
               <g id="g_3" inkscape:label="Group 3" transform="matrix(1.0, 0.0, 0.0, 1.0, 406.46, 396.55)" style="fill-opacity:1.0;fill:rgb(0, 127, 187);fill-rule:nonzero">
                  <path d="M 15.602,-120.673 C 76.706,-32.632000000000005 43.533,77.596 34.173,77.596 C 17.823,77.596 10.725,80.67099999999999 8.695,71.689 C 6.210000000000001,60.69199999999999 15.534,55.917 15.534,55.917 C 15.534,55.917 7.098000000000001,-16.270000000000003 -2.34,-48.627 " id="path_4" inkscape:label="Path 1" style="fill-opacity:1.0;fill:rgb(0, 127, 187);fill-rule:nonzero"/>
               </g>
               <g id="g_5" inkscape:label="Group 1" transform="matrix(1.0, 0.0, 0.0, 1.0, 406.46, 396.55)" style="stroke:rgb(0, 70, 110);stroke-opacity:1.0;stroke-width:18.0;stroke-miterlimit:0;stroke-linecap:round;stroke-linejoin:round">
                  <path d="M 15.602,-120.673 C 78.168,-30.11 43.533,77.596 34.173,77.596 C 17.823,77.596 10.725,80.67099999999999 8.695,71.689 C 6.210000000000001,60.69199999999999 15.534,55.917 15.534,55.917 C 15.534,55.917 7.628,-18.262000000000004 -2.34,-48.627 " id="path_6" inkscape:label="Path 1" style=""/>
               </g>
            </g>
            <g inkscape:groupmode="layer" id="body" inkscape:label="body" transform="matrix(1.0, 0.0, 0.0, 1.0, -292.0, -498.0)" style="">
               <g inkscape:groupmode="layer" id="tail" inkscape:label="tail" transform="matrix(0.1884441417682649, 0.982083909568435, -0.982083909568435, 0.1884441417682649, 595.8908798064951, -310.6753615535609)" style="">
                  <g id="g_7" inkscape:label="Group 3" transform="matrix(1.0, 0.0, 0.0, 1.0, 451.24, 136.873)" style="fill-opacity:1.0;fill:url(#Gradient_tail3);fill-rule:nonzero">
                     <path d="M -81.386,143.11199999999997 C -92.116,90.26199999999997 -41.305,56.544 13.813,52.21 C 79.045,47.081 126.30199999999999,116.495 136.63,161.899 C 141.345,182.629 127.035,194.497 112.571,180.644 C 107.69,175.969 103.697,166.944 98.113,157.146 C 82.83,130.32899999999998 55.128,89.862 28.574,88.838 C 2.020000000000003,87.814 -54.811,103.316 -48.267,139.519 " id="path_8" inkscape:label="Path 1" style="fill-opacity:1.0;fill:url(#linearGradient_9);fill-rule:nonzero"/>
                  </g>
                  <g id="Group_2" inkscape:label="Group 2" transform="matrix(1.0, 0.0, 0.0, 1.0, 466.4, 82.604)" opacity="0.0" style="stroke:url(#Gradient_tail2);stroke-opacity:1.0;stroke-width:16.0;stroke-miterlimit:0;stroke-linecap:round;stroke-linejoin:round">
                     <path d="M 97.605,234.866 C 99.968,236.96 127.23700000000001,252.982 121.358,215.603 C 118.14200000000001,195.15200000000002 91.891,155.60200000000003 91.891,155.60200000000003 " id="path_10" inkscape:label="Path 1" style=""/>
                  </g>
                  <g id="g_11" inkscape:label="Group 1" transform="matrix(1.0, 0.0, 0.0, 1.0, 451.24, 136.873)" style="stroke:url(#Gradient_tail1);stroke-opacity:1.0;stroke-width:18.0;stroke-miterlimit:0;stroke-linecap:round;stroke-linejoin:round">
                     <path d="M -81.386,143.11199999999997 C -91.699,90.62999999999997 -41.305,56.543 13.813,52.21 C 79.045,47.081 126.303,116.495 136.631,161.899 C 141.346,182.628 127.035,194.497 112.571,180.644 C 107.69,175.969 103.697,166.943 98.113,157.145 C 82.83,130.328 55.128,89.862 28.574,88.838 C 2.020000000000003,87.814 -53.324000000000005,106.678 -48.267,139.519 " id="path_12" inkscape:label="Path 1" style=""/>
                  </g>
                  <g id="Group_4" inkscape:label="Group 4" transform="matrix(1.0, 0.0, 0.0, 1.0, 451.24, 136.873)" style="">
                     <path d="M -81.386,143.11199999999997 C -91.699,90.62999999999997 -41.305,56.543 13.813,52.21 C 79.045,47.081 126.303,116.495 136.631,161.899 C 137.1025,163.9719 137.38374,165.9562 137.493593,167.835038 " style=""/>
                  </g>
               </g>
               <g id="g_13" inkscape:label="Group 4" transform="matrix(1.0, 0.0, 0.0, 1.0, 298.621, 203.424)" style="fill-opacity:1.0;fill:url(#Gradient_body1);fill-rule:nonzero">
                  <path d="M 150.664,61.134 C 149.857,-29.804000000000002 116.835,-119.589 116.835,-119.589 C 116.835,-119.589 92.774,-112.517 92.774,-112.517 C 92.774,-112.517 51.109,-185.971 51.109,-185.971 C 51.109,-185.971 10.351,-138.341 10.351,-138.341 C 10.351,-138.341 -18.085,-185.222 -18.085,-185.222 C -18.085,-185.222 -71.673,-125.828 -71.673,-125.828 C -71.673,-125.828 -85.361,-157.107 -85.361,-157.107 C -85.361,-157.107 -144.899,-79.896 -155.164,-31.243 C -155.164,-31.243 -118.47999999999999,5.559999999999988 -113.106,86.109 C -113.106,86.109 -109.685,116.852 -69.817,124.927 C -40.772999999999996,130.809 -15.662,100.694 -15.662,100.694 C 6.144999999999998,80.876 50.709999999999994,53.00099999999999 78.969,77.835 C 78.969,77.835 94.958,118.626 117.275,109.479 C 151.47,95.463 150.664,61.134 150.664,61.134 Z" id="path_14" inkscape:label="Path 1" style="fill-opacity:1.0;fill:url(#linearGradient_15);fill-rule:nonzero"/>
               </g>
               <g id="g_16" inkscape:label="Group 3" transform="matrix(1.0, 0.0, 0.0, 1.0, 302.106, 257.215)" opacity="0.25" style="fill-opacity:1.0;fill:rgb(0, 99, 155);fill-rule:nonzero">
                  <path d="M 150.175,20.972 C 150.175,20.972 107.559,99.51599999999999 76.985,25.183 C 64.894,-4.213999999999999 2.155000000000001,25.721999999999998 -19.645,45.541 C -19.645,45.541 -95.606,115.285 -116.095,26.448 C -127.342,-22.319000000000003 -143.72500000000002,-55.367999999999995 -151.175,-74.076 C -94.62500000000001,-17.611999999999995 147.874,4.879000000000005 135.475,-103.17 C 135.315,-104.565 135.17499999999998,-105.926 135.075,-107.241 C 144.48499999999999,-73.351 149.715,-31.116 150.175,20.972 Z" id="path_17" inkscape:label="Path 1" style="fill-opacity:1.0;fill:rgb(0, 99, 155);fill-rule:nonzero"/>
               </g>
               <g id="g_18" inkscape:label="Group 2" transform="matrix(1.0, 0.0, 0.0, 1.0, 301.931, 197.932)" opacity="0.3" style="stroke:url(#Gradient_body2);stroke-opacity:1.0;stroke-width:18.0;stroke-miterlimit:0;stroke-linecap:round;stroke-linejoin:round">
                  <path d="M 147.354,84.627 C 146.54700000000003,-6.311000000000007 113.525,-96.096 113.525,-96.096 C 113.525,-96.096 89.464,-89.024 89.464,-89.024 C 89.464,-89.024 47.799,-162.479 47.799,-162.479 C 47.799,-162.479 7.041,-114.849 7.041,-114.849 C 7.041,-114.849 -21.395,-161.729 -21.395,-161.729 C -21.395,-161.729 -74.983,-102.335 -74.983,-102.335 C -74.983,-102.335 -88.671,-133.615 -88.671,-133.615 C -88.671,-133.615 -151.64881777777762,-20.05770222222247 -151.64881777777762,-20.05770222222247 " style=""/>
               </g>
               <g id="g_19" inkscape:label="Group 1" transform="matrix(1.0, 0.0, 0.0, 1.0, 297.622, 205.382)" style="stroke:url(#Gradient_body3);stroke-opacity:1.0;stroke-width:18.0;stroke-miterlimit:0;stroke-linecap:round;stroke-linejoin:round">
                  <path d="M 151.663,59.176 C 150.85600000000002,-31.762 117.834,-121.547 117.834,-121.547 C 117.834,-121.547 93.773,-114.475 93.773,-114.475 C 93.773,-114.475 52.108,-187.929 52.108,-187.929 C 52.108,-187.929 11.35,-140.3 11.35,-140.3 C 11.35,-140.3 -17.086,-187.18 -17.086,-187.18 C -17.086,-187.18 -70.674,-127.786 -70.674,-127.786 C -70.674,-127.786 -84.361,-159.066 -84.361,-159.066 C -84.361,-159.066 -143.89999999999998,-81.854 -154.165,-33.201 C -154.165,-33.201 -117.481,3.600999999999999 -112.107,84.15 C -112.107,84.15 -108.686,114.893 -68.818,122.968 C -39.774,128.85 -14.663,98.736 -14.663,98.736 C 7.143999999999998,78.918 51.709,51.04299999999999 79.968,75.877 C 79.968,75.877 95.957,116.668 118.274,107.521 C 152.469,93.505 151.663,59.176 151.663,59.176 Z" id="path_20" inkscape:label="Path 1" style=""/>
               </g>
               <g id="Group_5" inkscape:label="Group 5" transform="matrix(1.0, 0.0, 0.0, 1.0, 297.622, 205.382)" style="">
                  <path d="M 77.94029999999998,-142.38752000000002 C 77.94029999999998,-142.38752000000002 52.108,-187.929 52.108,-187.929 C 52.108,-187.929 22.153325301204834,-152.9245542168675 22.153325301204834,-152.9245542168675 " style=""/>
               </g>
               <g inkscape:groupmode="layer" id="head" inkscape:label="head" transform="matrix(0.9998585018338497, 0.016821899731285846, -0.016821899731285846, 0.9998585018338497, 4.412402906451291, -73.32309710205712)" style="">
                  <g id="g_21" inkscape:label="Group 4" transform="matrix(1.0, 0.0, 0.0, 1.0, 140.296, 261.121)" style="fill-opacity:1.0;fill:url(#Gradient_h3);fill-rule:nonzero">
                     <path d="M 115.66,-10.090999999999998 C 113.163,-15.407999999999998 102.59100000000001,-21.079 99.539,-25.459 C 121.386,-90.179 107.20233470083541,-154.27972452201357 102.02325301028951,-154.11432475866462 C 96.70390644626583,-153.94442304542017 33.851,-75.599 21.435,-65.563 C 11.922999999999998,-66.561 9.950999999999999,-66.073 0.161,-66.073 C -9.446,-66.073 -26.79799999999999,-66.575 -36.14099999999999,-65.619 C -48.69299999999999,-75.764 -94.25969907260816,-156.74138064624148 -99.59982415937824,-156.8709523916719 C -104.79293404768796,-156.99696009343504 -128.948,-88.53200000000001 -114.37,-26.033 C -117.58,-21.5 -117.93599999999999,-16.358 -119.967,-10.57 C -134.628,31.208 -130.68,116.496 0.161,116.496 C 128.822,116.496 134.478,29.987000000000005 115.66,-10.090999999999998 Z" id="path_22" inkscape:label="Path 1" style="fill-opacity:1.0;fill:url(#linearGradient_23);fill-rule:nonzero"/>
                  </g>
                  <g id="g_24" inkscape:label="Group 3" transform="matrix(1.0, 0.0, 0.0, 1.0, 140.293, 321.545)" opacity="0.25" style="fill-opacity:1.0;fill:rgb(0, 174, 250);fill-rule:nonzero">
                     <path d="M 0.168,56.07 C -115.622,56.07 -134.14600000000002,-12.625 -123.266,-55.995 C -114.16600000000001,-22.015000000000008 -79.18199999999999,10.75 0.168,10.75 C 78.97800000000001,10.75 111.628,-21.71 120.768,-56.07 C 131.818,-12.750000000000007 114.928,56.07 0.168,56.07 Z" id="path_25" inkscape:label="Path 1" style="fill-opacity:1.0;fill:rgb(0, 174, 250);fill-rule:nonzero"/>
                  </g>
                  <g id="g_26" inkscape:label="Group 2" transform="matrix(1.0, 0.0, 0.0, 1.0, 139.706, 185.224)" opacity="0.3" style="stroke:url(#Gradient_h2);stroke-opacity:1.0;stroke-width:18.0;stroke-miterlimit:0;stroke-linecap:round;stroke-linejoin:round">
                     <path d="M -118.2755539282533,9.111058086733756 C -118.2755539282533,9.111058086733756 -115.07050471711001,-24.418365965159932 -98.79116313831378,-54.889284861527685 C -98.79116313831378,-54.889284861527685 -41.649,24.561 -41.649,24.561 C -41.649,24.561 4.474,18.698 26.363,24.561 C 26.363,24.561 100.15944090384804,-60.06052004167339 100.15944090384804,-60.06052004167339 C 100.15944090384804,-60.06052004167339 105.647,-15.838000000000001 107.058,24.561 " id="path_27" inkscape:label="Path 1" style=""/>
                  </g>
                  <g id="g_28" inkscape:label="Group 1" transform="matrix(1.0, 0.0, 0.0, 1.0, 140.296, 261.121)" style="stroke:url(#Gradient_h1);stroke-opacity:1.0;stroke-width:18.0;stroke-miterlimit:0;stroke-linecap:round;stroke-linejoin:round">
                     <path d="M 115.66,-10.090999999999998 C 113.163,-15.407999999999998 102.59100000000001,-21.079 99.539,-25.459 C 121.386,-90.179 107.20233470083541,-154.27972452201357 102.02325301028951,-154.11432475866462 C 96.70390644626583,-153.94446994073158 33.851,-75.599 21.435,-65.563 C 11.922999999999998,-66.561 9.950999999999999,-66.073 0.161,-66.073 C -9.446,-66.073 -26.79799999999999,-66.575 -36.14099999999999,-65.619 C -48.69299999999999,-75.764 -94.25969907260816,-156.74138064624148 -99.59982415937824,-156.8709523916719 C -104.79293404768796,-156.99696009343504 -127.828,-89.945 -114.37,-26.033 C -117.58,-21.5 -117.93599999999999,-16.358 -119.967,-10.57 C -134.628,31.208 -130.68,116.496 0.161,116.496 C 128.822,116.496 134.478,29.987000000000005 115.66,-10.090999999999998 Z" id="path_29" inkscape:label="Path 1" style=""/>
                  </g>
                  <g id="glint" inkscape:label="glint" transform="matrix(1.0, 0.0, 0.0, 1.0, 140.296, 261.121)" style="">
                     <path d="M 103.80207977680406,-152.2996078079158 C 103.14911518448488,-153.5047434684808 102.5411611793441,-154.13086473499953 102.02325301028951,-154.11432475866462 C 96.70390644626583,-153.94446994073158 33.851,-75.599 21.435,-65.563 C 11.922999999999998,-66.561 9.950999999999999,-66.073 0.161,-66.073 C -8.37855555555556,-66.073 -23.037617283950624,-66.46964197530865 -32.7516474622771,-65.88635528120713 " style=""/>
                  </g>
                  <g inkscape:groupmode="layer" id="eyer" inkscape:label="eyer" transform="matrix(1.0, 0.0, 0.0, 1.0, 14.27600000000001, -23.398000000000025)" style="">
                     <g id="g_30" inkscape:label="Group 5" transform="matrix(1.0, 0.0, 0.0, 1.0, 200.145, 299.634)" style="fill-opacity:1.0;fill:url(#Gradient_eye1);fill-rule:nonzero">
                        <path d="M 28.229,-33.178 C 28.229,-33.178 -34.87795907985296,-108.5972161904055 -40.341,46.632 C -40.341,46.632 42.19025522819831,87.81518263955185 28.229,-33.178 Z" id="path_31" inkscape:label="Path 1" style="fill-opacity:1.0;fill:url(#linearGradient_32);fill-rule:nonzero"/>
                     </g>
                     <g id="g_33" inkscape:label="Group 3" transform="matrix(1.0, 0.0, 0.0, 1.0, 199.698, 304.104)" opacity="0.2" style="stroke:rgb(0, 38, 53);stroke-opacity:1.0;stroke-width:18.0;stroke-miterlimit:0;stroke-linecap:round;stroke-linejoin:round">
                        <path d="M -39.894,42.162 C -39.894,42.162 -19.028875845661993,-98.99149508588282 28.675999999999995,-37.648 " id="path_34" inkscape:label="Path 1" style=""/>
                     </g>
                     <g id="g_35" inkscape:label="Group 2" transform="matrix(1.0, 0.0, 0.0, 1.0, 193.698, 300.26)" style="stroke:rgb(0, 38, 53);stroke-opacity:1.0;stroke-width:18.0;stroke-miterlimit:0;stroke-linecap:round;stroke-linejoin:round">
                        <path d="M 6.345892379549302,-11.34115944084927 C 6.345892379549302,-11.34115944084927 6.496179276247039,-4.960872544151532 6.496179276247039,-4.960872544151532 " id="path_36" inkscape:label="Path 1" style=""/>
                     </g>
                     <g id="g_37" inkscape:label="Group 1" transform="matrix(1.0, 0.0, 0.0, 1.0, 202.859, 293.72)" style="stroke:rgb(255, 255, 255);stroke-opacity:1.0;stroke-width:12.0;stroke-miterlimit:0;stroke-linecap:round;stroke-linejoin:round">
                        <path d="M 3.111892379549302,-0.39215944084926857 C 3.111892379549302,-0.39215944084926857 6.104179276247039,-0.39215944084926857 6.104179276247039,-0.39215944084926857 " id="path_38" inkscape:label="Path 1" style=""/>
                     </g>
                     <g id="g_39" inkscape:label="Group 4" transform="matrix(1.0, 0.0, 0.0, 1.0, 200.145, 299.634)" style="stroke:rgb(0, 99, 155);stroke-opacity:1.0;stroke-width:18.0;stroke-miterlimit:0;stroke-linecap:round;stroke-linejoin:round">
                        <path d="M 28.229,-33.178 C 28.229,-33.178 -35.13906119671054,-110.61835539445332 -40.341,46.632 C -40.341,46.632 40.85352288273903,86.90106578948587 28.229,-33.178 Z" id="path_40" inkscape:label="Path 1" style=""/>
                     </g>
                  </g>
                  <g inkscape:groupmode="layer" id="eyel" inkscape:label="eyel" transform="matrix(1.0, 0.0, 0.0, 1.0, 14.274999999999991, -23.398000000000025)" style="">
                     <g id="g_41" inkscape:label="Group 5" transform="matrix(1.0, 0.0, 0.0, 1.0, 80.391, 299.634)" style="fill-opacity:1.0;fill:url(#Gradient_eye2);fill-rule:nonzero">
                        <path d="M -44.873,-30.33233333333333 C -44.873,-30.33233333333333 62.88333333333333,-104.65199999999999 39.335,39.687666666666665 C 39.335,39.687666666666665 -66.49533333333333,93.66333333333333 -44.873,-30.33233333333333 Z" id="path_42" inkscape:label="Path 1" style="fill-opacity:1.0;fill:url(#linearGradient_43);fill-rule:nonzero"/>
                     </g>
                     <g id="g_44" inkscape:label="Group 3" transform="matrix(1.0, 0.0, 0.0, 1.0, 80.838, 303.493)" opacity="0.2" style="stroke:rgb(0, 38, 53);stroke-opacity:1.0;stroke-width:18.0;stroke-miterlimit:0;stroke-linecap:round;stroke-linejoin:round">
                        <path d="M -45.321,-34.190666666666665 C -45.321,-34.190666666666665 49.22366666666667,-83.70366666666666 38.888,35.82866666666667 " id="path_45" inkscape:label="Path 1" style=""/>
                     </g>
                     <g id="g_46" inkscape:label="Group 2" transform="matrix(1.0, 0.0, 0.0, 1.0, 87.16, 300.26)" style="stroke:rgb(0, 38, 53);stroke-opacity:1.0;stroke-width:18.0;stroke-miterlimit:0;stroke-linecap:round;stroke-linejoin:round">
                        <path d="M 2.4043333333333337,-12.369666666666667 C 2.4043333333333337,-12.369666666666667 1.8953333333333333,-2.974666666666667 1.8953333333333333,-2.974666666666667 " id="path_47" inkscape:label="Path 1" style=""/>
                     </g>
                     <g id="g_48" inkscape:label="Group 1" transform="matrix(1.0, 0.0, 0.0, 1.0, 95.823, 293.72)" style="stroke:rgb(255, 255, 255);stroke-opacity:1.0;stroke-width:12.0;stroke-miterlimit:0;stroke-linecap:round;stroke-linejoin:round">
                        <path d="M 1.088,-3.314 C 1.088,-3.314 4.763,-3.314 4.763,-3.314 " id="path_49" inkscape:label="Path 1" style=""/>
                     </g>
                     <g id="g_50" inkscape:label="Group 4" transform="matrix(1.0, 0.0, 0.0, 1.0, 80.391, 299.634)" style="stroke:rgb(0, 99, 155);stroke-opacity:1.0;stroke-width:18.0;stroke-miterlimit:0;stroke-linecap:round;stroke-linejoin:round">
                        <path d="M -44.873,-30.33233333333333 C -44.873,-30.33233333333333 63.688,-103.48866666666666 39.335,39.687666666666665 C 39.335,39.687666666666665 -66.36233333333334,93.92966666666669 -44.873,-30.33233333333333 Z" id="path_51" inkscape:label="Path 1" style=""/>
                     </g>
                  </g>
               </g>
            </g>
            <g inkscape:groupmode="layer" id="armr" inkscape:label="armr" transform="matrix(0.808380475987432, -0.5886603486241729, 0.5886603486241729, 0.808380475987432, -436.67672613924543, -327.340806804772)" style="">
               <g id="g_52" inkscape:label="Group 3" transform="matrix(1.0, 0.0, 0.0, 1.0, 234.237, 398.555)" style="fill-opacity:1.0;fill:rgb(0, 154, 226);fill-rule:nonzero">
                  <path d="M 44.212,-45.275 C 22.405000000000005,-27.796 14.699,-13.346 11.479,26.288 C 6.686999999999999,85.277 2.2560000000000002,100.007 -5.862,100.007 C -13.98,100.007 -17.403999999999996,100.007 -27.958,100.007 C -38.512,100.007 -38.259,83.024 -28.652,76.84 C -23.149,73.297 -75.52199999999999,-46.650000000000006 -35.409,-112.667 " id="path_53" inkscape:label="Path 1" style="fill-opacity:1.0;fill:rgb(0, 154, 226);fill-rule:nonzero"/>
               </g>
               <g id="g_54" inkscape:label="Group 2" transform="matrix(1.0, 0.0, 0.0, 1.0, 234.237, 398.555)" opacity="0.25" style="">
                  <path d="M 44.212,-45.275 C 22.405000000000005,-27.796 14.699,-13.346 11.479,26.288 C 6.686999999999999,85.277 2.2560000000000002,100.007 -5.862,100.007 C -13.98,100.007 -17.403999999999996,100.007 -27.958,100.007 C -38.512,100.007 -38.259,83.024 -28.652,76.84 C -23.149,73.297 -75.52199999999999,-46.650000000000006 -35.409,-112.667 " id="path_55" inkscape:label="Path 1" style=""/>
               </g>
               <g id="g_56" inkscape:label="Group 1" transform="matrix(1.0, 0.0, 0.0, 1.0, 234.237, 398.555)" style="stroke:rgb(1, 99, 155);stroke-opacity:1.0;stroke-width:18.0;stroke-miterlimit:0;stroke-linecap:round;stroke-linejoin:round">
                  <path d="M 44.212,-45.275 C 22.405000000000005,-27.796 14.699,-13.346 11.479,26.288 C 6.686999999999999,85.277 2.2560000000000002,100.007 -5.862,100.007 C -13.98,100.007 -17.403999999999996,100.007 -27.958,100.007 C -38.512,100.007 -38.259,83.024 -28.652,76.84 C -23.149,73.297 -75.52199999999999,-46.650000000000006 -35.409,-112.667 " id="path_57" inkscape:label="Path 1" style=""/>
               </g>
            </g>
            <g inkscape:groupmode="layer" id="feetr" inkscape:label="feetr" transform="matrix(0.4838629069845811, 0.8751438094647248, -0.8751438094647248, 0.4838629069845811, 193.6940896004408, -740.4257290348114)" style="">
               <g id="g_58" inkscape:label="Group 3" transform="matrix(1.0, 0.0, 0.0, 1.0, 406.46, 396.55)" style="fill-opacity:1.0;fill:rgb(0, 154, 226);fill-rule:nonzero">
                  <path d="M 25.666,-115.109 C 113.954,-56.602 43.533,77.596 34.173,77.596 C 17.823,77.596 10.725,80.67099999999999 8.695,71.689 C 6.210000000000001,60.69199999999999 15.534,55.917 15.534,55.917 C 15.534,55.917 7.098000000000001,-16.270000000000003 -2.34,-48.627 " id="path_59" inkscape:label="Path 1" style="fill-opacity:1.0;fill:rgb(0, 154, 226);fill-rule:nonzero"/>
               </g>
               <g id="g_60" inkscape:label="Group 1" transform="matrix(1.0, 0.0, 0.0, 1.0, 406.46, 396.55)" style="stroke:rgb(1, 99, 155);stroke-opacity:1.0;stroke-width:18.0;stroke-miterlimit:0;stroke-linecap:round;stroke-linejoin:round">
                  <path d="M 25.666,-115.109 C 111.962,-57.132 43.533,77.596 34.173,77.596 C 17.823,77.596 10.725,80.67099999999999 8.695,71.689 C 6.210000000000001,60.69199999999999 15.534,55.917 15.534,55.917 C 15.534,55.917 7.628,-18.262000000000004 -2.34,-48.627 " id="path_61" inkscape:label="Path 1" style=""/>
               </g>
            </g>
         </g>
      </g>
   </g>
   <g inkscape:groupmode="layer" id="buttweb" inkscape:label="buttweb" transform="matrix(1.0, 0.0, 0.0, 1.0, 262.002, 101.408)" style="">
      <g id="g_62" inkscape:label="Group 1" transform="matrix(1.0, 0.0, 0.0, 1.0, 0.0, 0.0)" opacity="0.75" style="stroke:url(#pornrnrnsr);stroke-opacity:1.0;stroke-width:7;stroke-miterlimit:0;stroke-linecap:round;stroke-linejoin:round">
         <path d="M 0,-87.965 C 0,-87.965 0.012,-88.035 0.012,-88.035 " id="path_63" inkscape:label="Path 1" style=""/>
      </g>
      <g inkscape:groupmode="layer" id="web_designer" inkscape:label="web designer" transform="matrix(0.0, 0.0, 0.0, 0.0, -1.0, -101.191)" opacity="1">
         <g inkscape:groupmode="layer" id="pfish" inkscape:label="pfish" transform="matrix(-0.03681314128103383, 1.5988362455952212, -1.5988362455952212, -0.03681314128103383, 896.7575593086682, -293.49107233579963)" opacity="0.8" style="">
            <g id="g_64" inkscape:label="Group 4" transform="matrix(1.0, 0.0, 0.0, 1.0, 450.685, 293.099)" style="fill-opacity:1.0;fill:rgb(253, 196, 64);fill-rule:nonzero">
               <path d="M 2.855,-6.984 C 3.044,2.6289999999999996 10.743,10.292000000000002 3.198,10.441 C -2.278,10.549000000000001 -7.055000000000001,6.577 -9.361,0.731 C -10.282,-1.5150000000000001 -10.793999999999999,-4.037000000000001 -10.847,-6.714 C -10.9,-9.415000000000001 -10.457,-11.954 -9.656,-14.236 C -7.581,-20.145 -2.9399999999999995,-24.302 2.511,-24.409 C 10.056000000000001,-24.558 2.666,-16.597 2.855,-6.984 Z" id="path_65" inkscape:label="Path 1" style="fill-opacity:1.0;fill:rgb(253, 196, 64);fill-rule:nonzero"/>
            </g>
            <g id="g_66" inkscape:label="Group 3" transform="matrix(1.0, 0.0, 0.0, 1.0, 424.584, 283.392)" style="fill-opacity:1.0;fill:rgb(250, 134, 39);fill-rule:nonzero">
               <path d="M 21.874,2.863 C 21.93,5.711 19.971999999999998,8.333 16.74,10.438 C 12.462,13.224 5.898999999999999,15.059 -1.499,15.205 C -14.544,15.462 -25.209999999999997,10.364 -25.339,3.793 C -25.468,-2.7779999999999996 -15.012,-8.315 -1.967,-8.572 C 5.430999999999999,-8.718 12.057,-7.138999999999999 16.445,-4.528 C 19.771,-2.5489999999999995 21.817999999999998,0.015000000000000124 21.874,2.863 Z" id="path_67" inkscape:label="Path 1" style="fill-opacity:1.0;fill:rgb(250, 134, 39);fill-rule:nonzero"/>
            </g>
            <g id="g_68" inkscape:label="Group 2" transform="matrix(1.0, 0.0, 0.0, 1.0, 427.78, 292.976)" opacity="0.15" style="fill-opacity:1.0;fill:rgb(58, 7, 0);fill-rule:nonzero">
               <path d="M 26.104,10.564 C 20.628,10.672 15.850999999999999,6.7 13.545,0.854 C 9.267,3.64 2.7039999999999997,5.4750000000000005 -4.694,5.621 C -17.739,5.878 -28.404,0.7799999999999994 -28.534,-5.791 C -28.534,-5.791 25.76,-6.861 25.76,-6.861 C 25.949,2.752 33.649,10.415000000000001 26.104,10.564 Z" id="path_69" inkscape:label="Path 1" style="fill-opacity:1.0;fill:rgb(58, 7, 0);fill-rule:nonzero"/>
            </g>
            <g id="g_70" inkscape:label="Group 1" transform="matrix(1.0, 0.0, 0.0, 1.0, 410.978, 278.816)" style="fill-opacity:1.0;fill:rgb(3, 38, 51);fill-rule:nonzero">
               <path d="M 0.125,8.133 C 0.153,9.572999999999999 -0.9910000000000001,10.764 -2.431,10.792 C -3.871,10.82 -5.062,9.676 -5.09,8.236 C -5.117999999999999,6.796000000000001 -3.9739999999999998,5.6049999999999995 -2.534,5.577 C -1.0939999999999999,5.549 0.097,6.693 0.125,8.133 Z" id="path_71" inkscape:label="Path 1" style="fill-opacity:1.0;fill:rgb(3, 38, 51);fill-rule:nonzero"/>
            </g>
         </g>
      </g>
   </g>
</svg>
