<?xml version="1.0" ?>
<svg xmlns:inkscape="http://www.inkscape.org/namespaces/inkscape" xmlns:sodipodi="http://sodipodi.sourceforge.net/DTD/sodipodi-0.dtd" xmlns="http://www.w3.org/2000/svg" width="512" height="512" viewBox="0 0 512 512" version="1.1" id="svg_1" sodipodi:docname="🐸 Frog/Kiss" inkscape:export-xdpi="96" inkscape:export-ydpi="96" style="fill: none; stroke: none">
   <defs>
      <linearGradient x1="11.092" y1="-147.579" x2="-2.273" y2="95.409" id="linearGradient_2" inkscape:label="26chill" gradientUnits="userSpaceOnUse">
         <stop offset="21.0%" stop-color="rgb(118, 162, 255)" stop-opacity="1"/>
         <stop offset="53.300000000000004%" stop-color="rgb(91, 119, 244)" stop-opacity="1"/>
         <stop offset="86.6%" stop-color="rgb(65, 75, 233)" stop-opacity="1"/>
      </linearGradient>
      <linearGradient x1="11.092" y1="-147.579" x2="-2.273" y2="95.409" id="linearGradient_4" inkscape:label="26chill" gradientUnits="userSpaceOnUse">
         <stop offset="21.0%" stop-color="rgb(118, 162, 255)" stop-opacity="1"/>
         <stop offset="53.300000000000004%" stop-color="rgb(91, 119, 244)" stop-opacity="1"/>
         <stop offset="86.6%" stop-color="rgb(65, 75, 233)" stop-opacity="1"/>
      </linearGradient>
      <linearGradient x1="-0.451" y1="81.522" x2="-0.451" y2="-39.744" id="linearGradient_6" inkscape:label="26wiii" gradientUnits="userSpaceOnUse">
         <stop offset="28.000000000000004%" stop-color="rgb(15, 20, 78)" stop-opacity="1"/>
         <stop offset="70.1%" stop-color="rgb(15, 20, 78)" stop-opacity="0.5"/>
         <stop offset="100%" stop-color="rgb(15, 20, 78)" stop-opacity="0"/>
      </linearGradient>
      <linearGradient x1="-0.451" y1="81.522" x2="-0.451" y2="-39.744" id="linearGradient_8" inkscape:label="26wiii" gradientUnits="userSpaceOnUse">
         <stop offset="28.000000000000004%" stop-color="rgb(15, 20, 78)" stop-opacity="1"/>
         <stop offset="70.1%" stop-color="rgb(15, 20, 78)" stop-opacity="0.5"/>
         <stop offset="100%" stop-color="rgb(15, 20, 78)" stop-opacity="0"/>
      </linearGradient>
      <linearGradient x1="-0.908" y1="187.421" x2="-0.908" y2="-189.108" id="linearGradient_22" inkscape:label="26paintrain" gradientUnits="userSpaceOnUse">
         <stop offset="11.799999999999999%" stop-color="rgb(15, 20, 78)" stop-opacity="1"/>
         <stop offset="26.6%" stop-color="rgb(22, 28, 103)" stop-opacity="1"/>
         <stop offset="41.4%" stop-color="rgb(29, 36, 128)" stop-opacity="1"/>
         <stop offset="83.0%" stop-color="rgb(43, 51, 155)" stop-opacity="1"/>
         <stop offset="100%" stop-color="rgb(57, 66, 181)" stop-opacity="1"/>
      </linearGradient>
      <radialGradient cx="0.285" cy="-0.422" r="58.018" fx="0.285" fy="-0.422" id="radialGradient_54" inkscape:label="26frodds" gradientUnits="userSpaceOnUse">
         <stop offset="0%" stop-color="rgb(255, 162, 232)" stop-opacity="1"/>
         <stop offset="55.400000000000006%" stop-color="rgb(255, 162, 231)" stop-opacity="0.5"/>
         <stop offset="92.5%" stop-color="rgb(255, 162, 231)" stop-opacity="0"/>
      </radialGradient>
      <radialGradient cx="0.285" cy="-0.422" r="58.018" fx="0.285" fy="-0.422" id="radialGradient_60" inkscape:label="26frodds" gradientUnits="userSpaceOnUse">
         <stop offset="0%" stop-color="rgb(255, 162, 232)" stop-opacity="1"/>
         <stop offset="55.400000000000006%" stop-color="rgb(255, 162, 231)" stop-opacity="0.5"/>
         <stop offset="92.5%" stop-color="rgb(255, 162, 231)" stop-opacity="0"/>
      </radialGradient>
      <radialGradient cx="0.362" cy="-0.422" r="58.018" fx="0.362" fy="-0.422" id="ooofsf26" inkscape:label="ooofsf26" gradientUnits="userSpaceOnUse">
         <stop offset="0%" stop-color="rgb(255, 162, 232)" stop-opacity="1"/>
         <stop offset="55.400000000000006%" stop-color="rgb(255, 162, 231)" stop-opacity="0.5"/>
         <stop offset="92.5%" stop-color="rgb(255, 162, 231)" stop-opacity="0"/>
      </radialGradient>
      <radialGradient cx="0.362" cy="-0.422" r="58.018" fx="0.362" fy="-0.422" id="radialGradient_67" inkscape:label="ooofsf26" gradientUnits="userSpaceOnUse">
         <stop offset="0%" stop-color="rgb(255, 162, 232)" stop-opacity="1"/>
         <stop offset="55.400000000000006%" stop-color="rgb(255, 162, 231)" stop-opacity="0.5"/>
         <stop offset="92.5%" stop-color="rgb(255, 162, 231)" stop-opacity="0"/>
      </radialGradient>
   </defs>
   <sodipodi:namedview inkscape:pagecheckerboard="true" borderlayer="true" bordercolor="#666666" pagecolor="#ffffff"/>
   <g inkscape:groupmode="layer" id="master" inkscape:label="master" transform="matrix(0.9348903602261476, 0.0, 0.0, 0.9348903602261476, 268.1428571428571, 417.0)" opacity="1">
      <g inkscape:groupmode="layer" id="impactrot" inkscape:label="impactrot" transform="matrix(1.0, 0.0, 0.0, 1.0, -40.0, 23.0)" opacity="1">
         <g inkscape:groupmode="layer" id="body" inkscape:label="body" transform="matrix(1.015727103887316, 0.0, 0.0, 0.9842728961126841, -220.1162549004272, -433.01961930223814)" style="">
            <g inkscape:groupmode="layer" id="larm" inkscape:label="larm" transform="matrix(1.0, 0.0, 0.0, 1.0, 72.161, 363.866)" style="">
               <g id="Group_1" inkscape:label="Group 1" transform="matrix(1.0, 0.0, 0.0, 1.0, 0.0, 0.0)" style="fill-opacity:1.0;fill:rgb(50, 58, 186);fill-rule:nonzero;stroke:rgb(15, 20, 78);stroke-opacity:1.0;stroke-width:18.0;stroke-miterlimit:0;stroke-linecap:round;stroke-linejoin:round">
                  <path d="M -5.609,-61.865 C -5.609,-61.865 -7.725596351232081,11.241244125028917 -27.84059635123208,15.035244125028917 C -37.83159635123208,16.92024412502892 -52.83859635123208,22.45624412502892 -51.12459635123208,26.41024412502892 C -49.97859635123208,29.054244125028923 -35.295840869243385,34.35948864304022 -35.295840869243385,34.35948864304022 C -35.295840869243385,34.35948864304022 -42.023840869243394,46.21524412502892 -39.75984086924339,50.265244125028914 C -37.49584086924339,54.314244125028914 -13.757596351232078,51.18324412502892 -13.757596351232078,51.18324412502892 C -13.757596351232078,51.18324412502892 -12.39859635123208,57.65624412502893 -5.48359635123208,60.279244125028924 C 1.7104036487679197,63.008244125028924 30.04140364876792,52.719244125028915 39.42140364876792,44.08124412502892 C 46.82240364876792,37.265244125028914 66.19540364876792,1.8592441250289227 68.52840364876792,-35.568755874971075 " id="Path_1" inkscape:label="Path 1" style="fill-opacity:1.0;fill:rgb(50, 58, 186);fill-rule:nonzero"/>
               </g>
            </g>
            <g id="fill" inkscape:label="fill" transform="matrix(1.0, 0.0, 0.0, 1.0, 281.908, 264.579)" style="fill-opacity:1.0;fill:url(#linearGradient_2);fill-rule:nonzero">
               <path d="M -238.27188292189373,-6.884529753136243 C -288.2438829218937,-78.28052975313625 -236.6122360906512,-125.20376584378748 -236.6122360906512,-125.20376584378748 C -236.6122360906512,-125.20376584378748 -230.15507064604475,-183.88653168757494 -185.51449762105963,-190.41853168757495 C -151.17089723065953,-195.44353168757496 -125.924,-169.0700595062725 -125.924,-169.0700595062725 C -103.138,-170.8930595062725 -20.102,-170.90905950627248 -20.102,-170.90905950627248 C -20.102,-170.90905950627248 0.487181929615808,-199.55894354222465 38.21215818249251,-197.21018372599633 C 97.38640926423163,-193.5262748376433 116.501,-113.29005950627248 121.97,-91.41505950627248 C 121.97,-91.41505950627248 233.04600000000002,-45.75800000000001 216.22500000000002,80.451 C 201.49600000000004,190.962 -82.244,195.074 -161.869,158.977 C -257.474,115.636 -238.27188292189373,-6.884529753136243 -238.27188292189373,-6.884529753136243 Z" id="path_3" inkscape:label="Path 1" style="fill-opacity:1.0;fill:url(#linearGradient_4);fill-rule:nonzero"/>
            </g>
            <g id="Group_8" inkscape:label="Group 8" transform="matrix(1.0, 0.0, 0.0, 1.0, 159.557, 178.138)" opacity="0.0" style="stroke:rgb(255, 255, 255);stroke-opacity:1.0;stroke-width:18.0;stroke-miterlimit:0;stroke-linecap:round;stroke-linejoin:round">
               <path d="M -83.68480850532387,39.788051103209305 C -83.68480850532387,39.788051103209305 52.72428431863062,19.28639496177485 163.4458998190936,42.95847973612518 " id="path_5" inkscape:label="Path 1" style=""/>
            </g>
            <g id="Group_7" inkscape:label="Group 7" transform="matrix(1.0, 0.0, 0.0, 1.0, 278.451, 359.478)" opacity="0.3" style="fill-opacity:1.0;fill:url(#linearGradient_6);fill-rule:nonzero">
               <path d="M 214.18600000000004,4.39 C 171.50500000000005,96.41 -83.58500000000001,97.99099999999999 -158.407,64.073 C -227.97500000000002,32.541999999999994 -244.701,-53.693 -232.406,-95.756 C -225.679,21.739000000000004 3.358000000000004,38.407 108.876,-16.736 C 108.876,-16.736 214.18600000000004,4.39 214.18600000000004,4.39 Z" id="path_7" inkscape:label="Path 1" style="fill-opacity:1.0;fill:url(#linearGradient_8);fill-rule:nonzero"/>
            </g>
            <g id="Group_6" inkscape:label="Group 6" transform="matrix(1.0, 0.0, 0.0, 1.0, 443.233, 252.283)" style="">
               <g id="g_9" inkscape:label="Group 1" transform="matrix(1.0, 0.0, 0.0, 1.0, 0.0, 0.0)" style="fill-opacity:1.0;fill:rgb(59, 69, 187);fill-rule:nonzero">
                  <path d="M -12.678,-57.152 C -33.921,-67.479 -33.167,12.296000000000006 18.046,57.278000000000006 C 56.448,91.00800000000001 53.00200000000001,49.718 53.00200000000001,49.718 C 53.00200000000001,49.718 48.766999999999996,-27.283 -12.678,-57.152 Z" id="path_10" inkscape:label="Path 1" style="fill-opacity:1.0;fill:rgb(59, 69, 187);fill-rule:nonzero"/>
               </g>
            </g>
            <g id="high" inkscape:label="high" transform="matrix(0.99393, 0.0, 0.0, 0.93313, 282.81, 227.586)" opacity="0.5" style="stroke:rgb(255, 255, 255);stroke-opacity:1.0;stroke-width:18.0;stroke-miterlimit:0;stroke-linecap:round;stroke-linejoin:round">
               <path d="M -259.42631598230753,-14.912226015032235 C -264.005992293445,-56.18183232701327 -236.48695301036622,-81.1732185862374 -236.48695301036622,-81.1732185862374 C -236.48695301036622,-81.1732185862374 -229.9464676894795,-139.8184371724748 -185.3630077979538,-146.3504371724748 C -151.06334520833877,-151.37543717247482 -125.826,-125.05453115174245 -125.826,-125.05453115174245 C -103.03999999999999,-126.87753115174245 -20.004,-126.89353115174245 -20.004,-126.89353115174245 C -20.004,-126.89353115174245 28.0627733213134,-148.5215710676107 28.0627733213134,-148.5215710676107 " style=""/>
            </g>
            <g id="new_mouth" inkscape:label="new mouth" transform="matrix(1.0, 0.0, 0.0, 1.0, -577.0, 265.45146994569626)" style="">
               <g id="еблец2" inkscape:label="еблец2" transform="matrix(1.0, 0.0, 0.0, 1.0, 0.0, 0.0)" style="">
                  <g id="губы_2" inkscape:label="губы 2" transform="matrix(1.0, 0.0, 0.0, 1.0, 0.0, 0.0)" style="">
                     <g id="g_11" inkscape:label="Group 7" transform="matrix(1.0, 0.0, 0.0, 1.0, 760.749, -18.852)" opacity="0.5" style="stroke:rgb(31, 38, 128);stroke-opacity:1.0;stroke-width:18.0;stroke-miterlimit:0;stroke-linecap:round;stroke-linejoin:round">
                        <path d="M -39.736,5.775109293118703 C -39.736,5.775109293118703 -1.0151562827525211,-26.44273442412878 40.36284371724748,9.55326557587122 " id="path_12" inkscape:label="Path 1" style=""/>
                     </g>
                     <g id="g_13" inkscape:label="Group 6" transform="matrix(1.0, 0.0, 0.0, 1.0, 767.911, -47.425)" style="stroke:rgb(31, 38, 128);stroke-opacity:1.0;stroke-width:18.0;stroke-miterlimit:0;stroke-linecap:round;stroke-linejoin:round">
                        <path d="M -89.1247826730541,-14.461632314373052 C -56.68588510516017,-15.681402978109052 -48.31571092931187,9.932156282752521 -2.56771092931187,10.59915628275252 C 48.634289070688126,11.345156282752521 51.86750026190965,-13.941500302203442 90.46184032194297,-14.417990720917825 " id="path_14" inkscape:label="Path 1" style=""/>
                     </g>
                     <g id="Group_5" inkscape:label="Group 5" transform="matrix(1.0, 0.0, 0.0, 1.0, 774.744, -72.321)" style="stroke:rgb(31, 38, 128);stroke-opacity:1.0;stroke-width:18.0;stroke-miterlimit:0;stroke-linecap:round;stroke-linejoin:round">
                        <path d="M -112.01927750460175,13.02699309869357 C -87.73071623879251,10.159229789679664 -57.014710929311875,-23.93874973797985 -42.31271092931187,-22.82174973797985 C -27.610710929311868,-21.70474973797985 -14.76971092931187,-14.361749737979846 16.97928907068813,-21.978749737979847 C 37.750289070688126,-26.961749737979847 63.80215501327706,0.4534826610543625 112.44553123233003,15.815369277452742 " id="path_15" inkscape:label="Path 1" style=""/>
                     </g>
                     <g id="Group_4" inkscape:label="Group 4" transform="matrix(1.0, 0.0, 0.0, 1.0, 639.601, -48.329)" opacity="0.7" style="stroke:rgb(31, 38, 128);stroke-opacity:1.0;stroke-width:18.0;stroke-miterlimit:0;stroke-linecap:round;stroke-linejoin:round">
                        <path d="M -4.789514931060045,-18.250144998722675 C -4.789514931060045,-18.250144998722675 -15.581416136021232,-9.532124244325644 4.057372995107584,12.56122484284316 " id="path_16" inkscape:label="Path 1" style=""/>
                     </g>
                     <g id="Group_3" inkscape:label="Group 3" transform="matrix(1.0, 0.0, 0.0, 1.0, 910.817, -44.036)" opacity="0.7" style="stroke:rgb(31, 38, 128);stroke-opacity:1.0;stroke-width:18.0;stroke-miterlimit:0;stroke-linecap:round;stroke-linejoin:round">
                        <path d="M 9.220508432691538,-16.92068771655151 C 9.220508432691538,-16.92068771655151 17.814814499828067,-2.1228881276365907 -4.387659003025498,12.172973402119085 " id="path_17" inkscape:label="Path 1" style=""/>
                     </g>
                  </g>
                  <g id="g_18" inkscape:label="Group 1" transform="matrix(1.0, 0.0, 0.0, 1.0, 756.62, 26.556)" opacity="0.2" style="fill-opacity:1.0;fill:rgb(23, 29, 105);fill-rule:nonzero">
                     <path d="M 34.01052138913476,0.6111246069697742 C 32.69552138913476,-14.899875393030225 11.228521389134762,1.5291246069697735 -18.030478610865238,-5.413875393030226 C -45.91647861086524,-12.030875393030225 -34.506478610865244,21.520124606969777 -4.880478610865239,21.353124606969775 C 24.745521389134762,21.186124606969774 34.63652138913476,7.996124606969774 34.01052138913476,0.6111246069697742 Z" id="path_19" inkscape:label="Path 1" style="fill-opacity:1.0;fill:rgb(23, 29, 105);fill-rule:nonzero"/>
                  </g>
                  <g id="Group_2" inkscape:label="Group 2" transform="matrix(1.0, 0.0, 0.0, 1.0, 777.124, -56.836)" style="stroke:rgb(9, 14, 55);stroke-opacity:1.0;stroke-width:18.0;stroke-miterlimit:0;stroke-linecap:round;stroke-linejoin:round">
                     <path d="M -130.4199044289066,0.3412498086044864 C -130.4199044289066,0.3412498086044864 2.793450139101992,-27.58605318557788 130.4954390968349,4.5911562021649335 " id="path_20" inkscape:label="Path 1" style=""/>
                  </g>
               </g>
            </g>
            <g id="outline" inkscape:label="outline" transform="matrix(1.0, 0.0, 0.0, 1.0, 281.908, 264.579)" style="stroke:url(#linearGradient_22);stroke-opacity:1.0;stroke-width:18.0;stroke-miterlimit:0;stroke-linecap:round;stroke-linejoin:round">
               <path d="M -238.2531092931187,-6.873265575871221 C -288.2251092931187,-78.26926557587122 -236.58595301036618,-125.1662185862374 -236.58595301036618,-125.1662185862374 C -236.58595301036618,-125.1662185862374 -230.04446768947952,-183.8114371724748 -185.4610077979538,-190.3434371724748 C -151.1613452083388,-195.3684371724748 -125.924,-169.04753115174245 -125.924,-169.04753115174245 C -103.138,-170.87053115174245 -20.102,-170.88653115174245 -20.102,-170.88653115174245 C -20.102,-170.88653115174245 0.5089142822857937,-199.46535324805535 38.178962652092494,-197.1105295497327 C 97.26705404193147,-193.417113695768 116.501,-113.26753115174245 121.97,-91.39253115174245 C 121.97,-91.39253115174245 233.04600000000002,-45.75800000000001 216.22500000000002,80.451 C 201.49600000000004,190.962 -82.244,195.074 -161.869,158.977 C -257.474,115.636 -238.2531092931187,-6.873265575871221 -238.2531092931187,-6.873265575871221 Z" id="path_21" inkscape:label="Path 1" style=""/>
            </g>
            <g id="det" inkscape:label="det" transform="matrix(1.0, 0.0, 0.0, 1.0, 408.545, 307.728)" opacity="0.5" style="fill-opacity:1.0;fill:rgb(23, 29, 105);fill-rule:nonzero">
               <path d="M 25.009,13.169 C 33.756,12.594000000000001 38.885,-2.4530000000000003 24.79,-4.314 C 10.694999999999999,-6.175 12.094999999999999,14.018 25.009,13.169 Z" id="path_23" inkscape:label="Path 1" style="fill-opacity:1.0;fill:rgb(23, 29, 105);fill-rule:nonzero"/>
            </g>
            <g inkscape:groupmode="layer" id="rfeet" inkscape:label="rfeet" transform="matrix(1.0, 0.0, 0.0, 1.0, 0.0, 0.0)" style="">
               <g id="g_24" inkscape:label="Group 4" transform="matrix(1.0, 0.0, 0.0, 1.0, 398.055, 397.886)" style="fill-opacity:1.0;fill:rgb(65, 75, 233);fill-rule:nonzero">
                  <path d="M 13.25,-60.245 C 13.25,-60.245 -11.625,-50.376 -48.538,-1.547 C -48.538,-1.547 -68.098,-13.995 -68.098,-13.995 C -68.098,-13.995 -75.679,5.564 -75.679,5.564 C -75.679,5.564 -98.18,7.341 -98.18,7.341 C -98.18,7.341 -88.933,45.958 -62.706,58.302 C -43.229,67.469 77.41900000000001,45.958000000000006 98.18,-43.728 " id="path_25" inkscape:label="Path 1" style="fill-opacity:1.0;fill:rgb(65, 75, 233);fill-rule:nonzero"/>
               </g>
               <g id="g_26" inkscape:label="Group 3" transform="matrix(1.0, 0.0, 0.0, 1.0, 353.178, 378.098)" opacity="0.5" style="stroke:rgb(255, 255, 255);stroke-opacity:1.0;stroke-width:18.0;stroke-miterlimit:0;stroke-linecap:round;stroke-linejoin:round">
                  <path d="M -53.304,27.129 C -53.304,27.129 -26.343,37.941 -26.343,37.941 C -26.343,37.941 -17.693,23.524 -17.693,23.524 C -17.693,23.524 -1.075,33.09 -1.075,33.09 C -1.075,33.09 17.138000000000005,3.9909999999999997 53.304,-37.941 " id="path_27" inkscape:label="Path 1" style=""/>
               </g>
               <g id="g_28" inkscape:label="Group 2" transform="matrix(1.0, 0.0, 0.0, 1.0, 398.055, 397.886)" style="stroke:rgb(23, 29, 105);stroke-opacity:1.0;stroke-width:18.0;stroke-miterlimit:0;stroke-linecap:round;stroke-linejoin:round">
                  <path d="M 13.25,-60.245 C 13.25,-60.245 -11.625,-50.376 -48.538,-1.547 C -48.538,-1.547 -68.098,-13.995 -68.098,-13.995 C -68.098,-13.995 -75.679,5.564 -75.679,5.564 C -75.679,5.564 -98.18,7.341 -98.18,7.341 C -98.18,7.341 -88.933,45.958 -62.706,58.302 C -43.229,67.469 77.41900000000001,45.958000000000006 98.18,-43.728 " id="path_29" inkscape:label="Path 1" style=""/>
               </g>
               <g id="g_30" inkscape:label="Group 1" transform="matrix(1.0, 0.0, 0.0, 1.0, 449.72, 359.864)" opacity="0.5" style="fill-opacity:1.0;fill:rgb(30, 36, 128);fill-rule:nonzero">
                  <path d="M -4.98,22.067 C 18.96,25.228 27.494,-20.484 5.234,-22.175 C -17.026000000000003,-23.866 -28.92,18.906 -4.98,22.067 Z" id="path_31" inkscape:label="Path 1" style="fill-opacity:1.0;fill:rgb(30, 36, 128);fill-rule:nonzero"/>
               </g>
            </g>
            <g inkscape:groupmode="layer" id="rarm" inkscape:label="rarm" transform="matrix(1.0, 0.0, 0.0, 1.0, 0.0, 0.0)" style="">
               <g id="g_32" inkscape:label="Group 3" transform="matrix(1.0, 0.0, 0.0, 1.0, 171.463, 396.338)" style="fill-opacity:1.0;fill:rgb(65, 75, 233);fill-rule:nonzero">
                  <path d="M -16.32462358793757,-59.86118938497838 C -16.32462358793757,-59.86118938497838 -11.659391066354537,14.198611491519461 -30.731070439970033,17.99261149151946 C -40.20456527771559,19.877611491519463 -54.43341882936219,25.414611491519462 -52.80856570402792,29.368611491519463 C -51.72149329914595,32.012611491519465 -37.80101914374811,37.31761149151946 -37.80101914374811,37.31761149151946 C -37.80101914374811,37.31761149151946 -44.17923098298343,49.17436697350816 -42.03308617321947,53.22361149151946 C -39.88694136345552,57.27261149151946 -17.378621523035793,54.140611491519465 -17.378621523035793,54.140611491519465 C -17.378621523035793,54.140611491519465 -16.089881347984207,60.61461149151947 -9.5337352926132,63.237611491519466 C -2.7129433950273523,65.96661149151947 24.1493996189542,55.67685600953077 33.042869218236156,47.038856009530775 C 40.06008436798031,40.22285600953077 56.12510586962274,5.892240847850026 58.45810586962274,-31.53575915214997 " id="path_33" inkscape:label="Path 1" style="fill-opacity:1.0;fill:rgb(65, 75, 233);fill-rule:nonzero"/>
               </g>
               <g id="g_34" inkscape:label="Group 2" transform="matrix(1.0, 0.0, 0.0, 1.0, 138.977, 380.701)" opacity="0.5" style="stroke:rgb(255, 255, 255);stroke-opacity:1.0;stroke-width:18.0;stroke-miterlimit:0;stroke-linecap:round;stroke-linejoin:round">
                  <path d="M -16.5335677689297,47.92485600953077 C -16.5335677689297,47.92485600953077 15.623670161393886,50.47161149151946 20.72889730756631,32.36561149151946 C 34.44145917478323,-16.26838850848054 16.161376412062427,-44.22343390298969 16.161376412062427,-44.22343390298969 " id="path_35" inkscape:label="Path 1" style=""/>
               </g>
               <g id="g_36" inkscape:label="Group 1" transform="matrix(1.0, 0.0, 0.0, 1.0, 171.463, 396.338)" style="stroke:rgb(23, 29, 105);stroke-opacity:1.0;stroke-width:18.0;stroke-miterlimit:0;stroke-linecap:round;stroke-linejoin:round">
                  <path d="M -16.32462358793757,-59.86118938497838 C -16.32462358793757,-59.86118938497838 -11.659391066354537,14.198611491519461 -30.731070439970033,17.99261149151946 C -40.20456527771559,19.877611491519463 -54.43341882936219,25.414611491519462 -52.80856570402792,29.368611491519463 C -51.72149329914595,32.012611491519465 -37.80101914374811,37.31761149151946 -37.80101914374811,37.31761149151946 C -37.80101914374811,37.31761149151946 -44.17923098298343,49.17436697350816 -42.03308617321947,53.22361149151946 C -39.88694136345552,57.27261149151946 -17.378621523035793,54.140611491519465 -17.378621523035793,54.140611491519465 C -17.378621523035793,54.140611491519465 -16.089881347984207,60.61461149151947 -9.5337352926132,63.237611491519466 C -2.7129433950273523,65.96661149151947 24.1493996189542,55.67685600953077 33.042869218236156,47.038856009530775 C 40.06008436798031,40.22285600953077 56.12510586962274,5.892240847850026 58.45810586962274,-31.53575915214997 " id="path_37" inkscape:label="Path 1" style=""/>
               </g>
            </g>
            <g inkscape:groupmode="layer" id="kiss_2" inkscape:label="kiss 2" transform="matrix(1.0, 0.0, 0.0, 1.0, 0.0, 0.0)" style="">
               <g id="g_38" inkscape:label="Group 2" transform="matrix(1.0, 0.0, 0.0, 1.0, 319.371, 249.755)" style="fill-opacity:1.0;fill:rgb(249, 82, 83);fill-rule:nonzero">
                  <path d="M 62.361000000000004,-26.92 C 58.913000000000004,-24.972 55.929,-29.392999999999997 51.488,-26.246 C 44.662,-21.409999999999997 30.658,19.416 36.249,25.881 C 39.978,30.193 54.614000000000004,14.23 62.109,8.785 C 69.604,3.34 73.635,-0.9830000000000001 86.923,-2.466 C 95.384,-3.4110000000000005 99.82831410042397,-6.535 99.82431410042396,-11.609 C 99.81631410042397,-22.171 79.894,-37.595 71.284,-37.285 C 65.79400000000001,-37.086999999999996 66.801,-29.429000000000002 62.361000000000004,-26.92 Z" id="path_39" inkscape:label="Path 1" style="fill-opacity:1.0;fill:rgb(249, 82, 83);fill-rule:nonzero"/>
               </g>
               <g id="g_40" inkscape:label="Group 1" transform="matrix(1.0, 0.0, 0.0, 1.0, 329.127, 290.884)" style="fill-opacity:1.0;fill:rgb(249, 82, 83);fill-rule:nonzero">
                  <path d="M 64.303,-11.04 C 64.303,-11.04 53.999,-20.015 42.649,-10.098 C 32.334,-1.0860000000000003 32.473,4.215 33.387,6.478 C 34.301,8.741 47.34,20.573 59.851,20.061 C 70.245,19.635 76.422,14.026 82.648,4.564 C 88.874,-4.898 92.93700000000001,-25.296999999999997 92.519,-28.303999999999995 C 92.101,-31.310999999999993 72.982,-35.541 64.303,-11.04 Z" id="path_41" inkscape:label="Path 1" style="fill-opacity:1.0;fill:rgb(249, 82, 83);fill-rule:nonzero"/>
               </g>
            </g>
            <g inkscape:groupmode="layer" id="ебало" inkscape:label="ебало" transform="matrix(1.0, 0.0, 0.0, 1.0, 193.0, 148.87103461272693)" opacity="1">
               <g inkscape:groupmode="layer" id="eyer" inkscape:label="eyer" transform="matrix(1.0, 0.0, 0.0, 1.0, -181.49999999999997, -181.0)" style="">
                  <g id="Group_16" inkscape:label="Group 16" transform="matrix(1.0, 0.0, 0.0, 1.0, 653.839, -92.058)" opacity="0.5" style="stroke:rgb(23, 29, 105);stroke-opacity:1.0;stroke-width:18.0;stroke-miterlimit:0;stroke-linecap:round;stroke-linejoin:round">
                     <path d="M -356.7397174167365,306.15489759378346 C -356.7397174167365,306.15489759378346 -326.22295039694563,313.16982786803317 -305.1155763934463,281.1496271246732 " id="path_42" inkscape:label="Path 1" style=""/>
                  </g>
                  <g id="g_43" inkscape:label="Group 2" transform="matrix(1.0, 0.0, 0.0, 1.0, 300.633, 162.716)" style="fill-opacity:1.0;fill:rgb(255, 255, 255);fill-rule:nonzero;stroke:rgb(9, 14, 55);stroke-opacity:1.0;stroke-width:18.0;stroke-miterlimit:0;stroke-linecap:round;stroke-linejoin:round">
                     <path d="M 2.866808152416751,-44.33849714216989 C 24.86578407198254,-44.33849714216989 42.69909341737364,-26.504614899185004 42.69909341737364,-4.505638979619218 C 42.69909341737364,17.49333693994657 24.86578407198254,35.326646285337674 2.866808152416751,35.326646285337674 C -19.132167767149035,35.326646285337674 -36.96605001013392,17.49333693994657 -36.96605001013392,-4.505638979619218 C -36.96605001013392,-26.504614899185004 -19.132167767149035,-44.33849714216989 2.866808152416751,-44.33849714216989 Z" id="path_44" inkscape:label="Path 1" style="fill-opacity:1.0;fill:rgb(255, 255, 255);fill-rule:nonzero"/>
                  </g>
                  <g id="g_45" inkscape:label="Group 1" transform="matrix(1.0, 0.0, 0.0, 1.0, 300.633, 162.716)" style="fill-opacity:1.0;fill:rgb(9, 14, 55);fill-rule:nonzero">
                     <path d="M 19.670349941333825,-28.355108231488984 C 28.649660692373427,-28.355108231488984 35.92806948481176,-21.076126541456873 35.92806948481176,-12.09681579041727 C 35.92806948481176,-3.1175050393776687 28.649660692373427,4.16190375306066 19.670349941333825,4.16190375306066 C 10.691039190294223,4.16190375306066 3.4116303978558946,-3.1175050393776687 3.4116303978558946,-12.09681579041727 C 3.4116303978558946,-21.076126541456873 10.691039190294223,-28.355108231488984 19.670349941333825,-28.355108231488984 Z" id="path_46" inkscape:label="Path 1" style="fill-opacity:1.0;fill:rgb(9, 14, 55);fill-rule:nonzero"/>
                  </g>
               </g>
               <g inkscape:groupmode="layer" id="eyel" inkscape:label="eyel" transform="matrix(1.0, 0.0, 0.0, 1.0, -769.0, 112.0)" style="">
                  <g id="g_47" inkscape:label="Group 4" transform="matrix(1.0, 0.0, 0.0, 1.0, 0.0, 0.0)" style="">
                     <g id="глоз2" inkscape:label="глоз2" transform="matrix(1.0, 0.0, 0.0, 1.0, 0.0, 0.0)" style="">
                        <g id="g_48" inkscape:label="Group 16" transform="matrix(1.0, 0.0, 0.0, 1.0, 653.839, -92.058)" opacity="0.5" style="stroke:rgb(23, 29, 105);stroke-opacity:1.0;stroke-width:18.0;stroke-miterlimit:0;stroke-linecap:round;stroke-linejoin:round">
                           <path d="M -22.91854063926448,-13.12259595728602 C -22.91854063926448,-13.12259595728602 -12.985376393236905,13.688280457401698 25.869710589327973,2.708700755821472 " id="path_49" inkscape:label="Path 1" style=""/>
                        </g>
                        <g id="Group_11" inkscape:label="Group 11" transform="matrix(1.0, 0.0, 0.0, 1.0, 667.61, -129.265)" style="fill-opacity:1.0;fill:rgb(255, 255, 255);fill-rule:nonzero;stroke:rgb(9, 14, 55);stroke-opacity:1.0;stroke-width:18.0;stroke-miterlimit:0;stroke-linecap:round;stroke-linejoin:round">
                           <path d="M -32.157785364621255,-2.147418685719681 C -34.02540731578264,9.100281237534087 -21.710187808935682,23.66268852948249 -3.9818422810423426,24.631866571647524 C 13.746503246850995,25.601044613812558 30.17421138137748,12.611099912766704 32.04183333253886,1.3633999895129372 C 33.90945528370024,-9.88429993374083 20.510117067776058,-15.130503888744832 2.781771539882717,-16.099681930909867 C -14.946573988010622,-17.0688599730749 -30.290163413459876,-13.395118608973448 -32.157785364621255,-2.147418685719681 Z" id="path_50" inkscape:label="Path 1" style="fill-opacity:1.0;fill:rgb(255, 255, 255);fill-rule:nonzero"/>
                        </g>
                        <g id="Group_10" inkscape:label="Group 10" transform="matrix(1.0, 0.0, 0.0, 1.0, 658.375, -130.145)" style="fill-opacity:1.0;fill:rgb(9, 14, 55);fill-rule:nonzero">
                           <path d="M -15.233272360533306,1.4614951595162968 C -16.00903577494655,6.167880491722993 -10.611439027994445,11.066937379543003 -3.1770162652394873,12.404505677818253 C 4.25740649751547,13.742073976093504 11.540634144132436,9.739784565421477 12.33808292459699,4.937303297379572 C 13.135531705061542,0.1348220293376654 7.645240648321493,-4.0941145271713255 0.0756032501877894,-4.5081413536143895 C -7.494034147945913,-4.9221681800574535 -14.457508946120061,-3.2448901726904 -15.233272360533306,1.4614951595162968 Z" id="path_51" inkscape:label="Path 1" style="fill-opacity:1.0;fill:rgb(9, 14, 55);fill-rule:nonzero"/>
                        </g>
                     </g>
                  </g>
               </g>
               <g inkscape:groupmode="layer" id="складк" inkscape:label="складк" transform="matrix(1.0, 0.0, 0.0, 1.0, -767.6451612903227, 118.5483870967742)" style="">
                  <g id="g_52" inkscape:label="Group 4" transform="matrix(1.0, 0.0, 0.0, 1.0, 0.0, 0.0)" style="">
                     <g id="складка" inkscape:label="складка" transform="matrix(1.0, 0.0, 0.0, 1.0, 774.503, -150.824)" opacity="0.3" style="stroke:rgb(23, 29, 105);stroke-opacity:1.0;stroke-width:18.0;stroke-miterlimit:0;stroke-linecap:round;stroke-linejoin:round">
                        <path d="M -32.387,-1.467 C -32.387,-1.467 -5.543999999999997,9.536 32.387,-2.999 " id="path_53" inkscape:label="Path 1" style=""/>
                     </g>
                  </g>
               </g>
               <g inkscape:groupmode="layer" id="щеки" inkscape:label="щеки" transform="matrix(0.76813, 0.0, 0.0, 1.0, -624.3046958699999, 112.0)" style="">
                  <g id="щекаЛ" inkscape:label="щекаЛ" transform="matrix(1.0, 0.0, 0.0, 1.0, 592.799, -68.321)" style="fill-opacity:0.4;fill:url(#radialGradient_54);fill-rule:nonzero">
                     <g id="g_55" inkscape:label="Group 3" transform="matrix(1.0, 0.0, 0.0, 1.0, -960.0, 80.0)" style="">
                        <g id="g_56" inkscape:label="Group 2" transform="matrix(1.0, 0.0, 0.0, 1.0, 945.174, -76.861)" style="stroke:rgb(255, 140, 243);stroke-opacity:1.0;stroke-width:18.0;stroke-miterlimit:0;stroke-linecap:round;stroke-linejoin:round">
                           <path d="M 5.127,-16.082 C 5.127,-16.082 -5.127,4.082 -5.127,4.082 " id="path_57" inkscape:label="Path 1" style=""/>
                        </g>
                        <g id="g_58" inkscape:label="Group 1" transform="matrix(1.0, 0.0, 0.0, 1.0, 976.141, -76.861)" style="stroke:rgb(255, 140, 243);stroke-opacity:1.0;stroke-width:18.0;stroke-miterlimit:0;stroke-linecap:round;stroke-linejoin:round">
                           <path d="M 5.377,-7.832 C 5.377,-7.832 -4.877,12.332 -4.877,12.332 " id="path_59" inkscape:label="Path 1" style=""/>
                        </g>
                     </g>
                     <ellipse rx="58.018" ry="58.018" cx="0" cy="0" id="Ellipse_Path_1" inkscape:label="Ellipse Path 1" style="fill-opacity:0.4;fill:url(#radialGradient_60);fill-rule:nonzero"/>
                  </g>
               </g>
               <g inkscape:groupmode="layer" id="щеки_2" inkscape:label="щеки 2" transform="matrix(1.0, 0.0, 0.0, 1.0, -769.0, 112.0)" style="">
                  <g id="щекаП" inkscape:label="щекаП" transform="matrix(1.0, 0.0, 0.0, 1.0, 959.721, -76.321)" style="fill-opacity:0.49;fill:url(#ooofsf26);fill-rule:nonzero">
                     <g id="g_61" inkscape:label="Group 3" transform="matrix(1.0, 0.0, 0.0, 1.0, -960.0, 80.0)" style="">
                        <g id="g_62" inkscape:label="Group 2" transform="matrix(1.0, 0.0, 0.0, 1.0, 945.174, -76.861)" style="stroke:rgb(255, 140, 243);stroke-opacity:1.0;stroke-width:18.0;stroke-miterlimit:0;stroke-linecap:round;stroke-linejoin:round">
                           <path d="M 1.627,-11.082 C 1.627,-11.082 -8.627,9.082 -8.627,9.082 " id="path_63" inkscape:label="Path 1" style=""/>
                        </g>
                        <g id="g_64" inkscape:label="Group 1" transform="matrix(1.0, 0.0, 0.0, 1.0, 976.141, -76.861)" style="stroke:rgb(255, 140, 243);stroke-opacity:1.0;stroke-width:18.0;stroke-miterlimit:0;stroke-linecap:round;stroke-linejoin:round">
                           <path d="M 4.127,-5.582 C 4.127,-5.582 -6.127,14.582 -6.127,14.582 " id="path_65" inkscape:label="Path 1" style=""/>
                        </g>
                     </g>
                     <path d="M 58.018,0 C 58.018,32.042 32.042,58.018 0,58.018 C -32.043,58.018 -58.018,32.042 -58.018,0 C -58.018,-32.042 -32.043,-58.018 0,-58.018 C 32.042,-58.018 58.018,-32.042 58.018,0 Z" id="path_66" inkscape:label="Path 1" style="fill-opacity:0.49;fill:url(#radialGradient_67);fill-rule:nonzero"/>
                  </g>
               </g>
            </g>
         </g>
      </g>
   </g>
</svg>
