<?xml version="1.0" ?>
<svg xmlns:inkscape="http://www.inkscape.org/namespaces/inkscape" xmlns:sodipodi="http://sodipodi.sourceforge.net/DTD/sodipodi-0.dtd" xmlns="http://www.w3.org/2000/svg" width="512" height="512" viewBox="0 0 512 512" version="1.1" id="💎_Gems" sodipodi:docname="💎 Gems" inkscape:export-xdpi="96" inkscape:export-ydpi="96" style="fill: none; stroke: none">
   <defs>
      <radialGradient cx="0.604" cy="1.895" r="242.00424815486193" fx="0.604" fy="1.895" id="sdfsdfsd" inkscape:label="sdfsdfsd" gradientUnits="userSpaceOnUse">
         <stop offset="19.6%" stop-color="rgb(0, 46, 249)" stop-opacity="1"/>
         <stop offset="52.800000000000004%" stop-color="rgb(0, 113, 251)" stop-opacity="1"/>
         <stop offset="93.60000000000001%" stop-color="rgb(0, 180, 253)" stop-opacity="1"/>
      </radialGradient>
      <radialGradient cx="0.604" cy="1.895" r="242.00424815486193" fx="0.604" fy="1.895" id="radialGradient_1" inkscape:label="sdfsdfsd" gradientUnits="userSpaceOnUse">
         <stop offset="19.6%" stop-color="rgb(0, 46, 249)" stop-opacity="1"/>
         <stop offset="52.800000000000004%" stop-color="rgb(0, 113, 251)" stop-opacity="1"/>
         <stop offset="93.60000000000001%" stop-color="rgb(0, 180, 253)" stop-opacity="1"/>
      </radialGradient>
      <radialGradient cx="0.604" cy="1.895" r="242.00424815486193" fx="0.604" fy="1.895" id="radialGradient_3" inkscape:label="45ffff" gradientUnits="userSpaceOnUse">
         <stop offset="0.5%" stop-color="rgb(255, 255, 255)" stop-opacity="1"/>
         <stop offset="3.6999999999999997%" stop-color="rgb(255, 255, 255)" stop-opacity="1"/>
         <stop offset="6.9%" stop-color="rgb(255, 255, 255)" stop-opacity="1"/>
         <stop offset="39.2%" stop-color="rgb(128, 191, 249)" stop-opacity="0.5"/>
         <stop offset="84.39999999999999%" stop-color="rgb(1, 128, 244)" stop-opacity="0"/>
         <stop offset="92.30000000000001%" stop-color="rgb(1, 189, 243)" stop-opacity="0"/>
         <stop offset="99.2%" stop-color="rgb(0, 250, 241)" stop-opacity="0"/>
      </radialGradient>
      <radialGradient cx="0.604" cy="1.895" r="242.00424815486193" fx="0.604" fy="1.895" id="radialGradient_5" inkscape:label="45ffff" gradientUnits="userSpaceOnUse">
         <stop offset="0.5%" stop-color="rgb(255, 255, 255)" stop-opacity="1"/>
         <stop offset="3.6999999999999997%" stop-color="rgb(255, 255, 255)" stop-opacity="1"/>
         <stop offset="6.9%" stop-color="rgb(255, 255, 255)" stop-opacity="1"/>
         <stop offset="39.2%" stop-color="rgb(128, 191, 249)" stop-opacity="0.5"/>
         <stop offset="84.39999999999999%" stop-color="rgb(1, 128, 244)" stop-opacity="0"/>
         <stop offset="92.30000000000001%" stop-color="rgb(1, 189, 243)" stop-opacity="0"/>
         <stop offset="99.2%" stop-color="rgb(0, 250, 241)" stop-opacity="0"/>
      </radialGradient>
      <radialGradient cx="-0.353" cy="0" r="17.436744793682106" fx="-0.353" fy="0.0" id="Gradient_Fill_1" inkscape:label="Gradient Fill 1" gradientUnits="userSpaceOnUse">
         <stop offset="15.8%" stop-color="rgb(255, 255, 255)" stop-opacity="1"/>
         <stop offset="39.300000000000004%" stop-color="rgb(255, 255, 255)" stop-opacity="0.5"/>
         <stop offset="72.1%" stop-color="rgb(255, 255, 255)" stop-opacity="0"/>
      </radialGradient>
      <radialGradient cx="-0.353" cy="0" r="17.436744793682106" fx="-0.353" fy="0.0" id="radialGradient_16" inkscape:label="Gradient Fill 1" gradientUnits="userSpaceOnUse">
         <stop offset="15.8%" stop-color="rgb(255, 255, 255)" stop-opacity="1"/>
         <stop offset="39.300000000000004%" stop-color="rgb(255, 255, 255)" stop-opacity="0.5"/>
         <stop offset="72.1%" stop-color="rgb(255, 255, 255)" stop-opacity="0"/>
      </radialGradient>
      <radialGradient cx="-0.353" cy="0" r="17.436744793682106" fx="-0.353" fy="0.0" id="radialGradient_20" inkscape:label="Gradient Fill 1" gradientUnits="userSpaceOnUse">
         <stop offset="15.8%" stop-color="rgb(255, 255, 255)" stop-opacity="1"/>
         <stop offset="39.300000000000004%" stop-color="rgb(255, 255, 255)" stop-opacity="0.5"/>
         <stop offset="72.1%" stop-color="rgb(255, 255, 255)" stop-opacity="0"/>
      </radialGradient>
      <radialGradient cx="-0.353" cy="0" r="17.436744793682106" fx="-0.353" fy="0.0" id="radialGradient_22" inkscape:label="Gradient Fill 1" gradientUnits="userSpaceOnUse">
         <stop offset="15.8%" stop-color="rgb(255, 255, 255)" stop-opacity="1"/>
         <stop offset="39.300000000000004%" stop-color="rgb(255, 255, 255)" stop-opacity="0.5"/>
         <stop offset="72.1%" stop-color="rgb(255, 255, 255)" stop-opacity="0"/>
      </radialGradient>
      <radialGradient cx="-0.353" cy="0" r="17.436744793682106" fx="-0.353" fy="0.0" id="radialGradient_26" inkscape:label="Gradient Fill 1" gradientUnits="userSpaceOnUse">
         <stop offset="15.8%" stop-color="rgb(255, 255, 255)" stop-opacity="1"/>
         <stop offset="39.300000000000004%" stop-color="rgb(255, 255, 255)" stop-opacity="0.5"/>
         <stop offset="72.1%" stop-color="rgb(255, 255, 255)" stop-opacity="0"/>
      </radialGradient>
      <radialGradient cx="-0.353" cy="0" r="17.436744793682106" fx="-0.353" fy="0.0" id="radialGradient_28" inkscape:label="Gradient Fill 1" gradientUnits="userSpaceOnUse">
         <stop offset="15.8%" stop-color="rgb(255, 255, 255)" stop-opacity="1"/>
         <stop offset="39.300000000000004%" stop-color="rgb(255, 255, 255)" stop-opacity="0.5"/>
         <stop offset="72.1%" stop-color="rgb(255, 255, 255)" stop-opacity="0"/>
      </radialGradient>
      <linearGradient x1="-60.407" y1="-77.888" x2="-80.281" y2="-195.235" id="linearGradient_32" inkscape:label="Gradient Fill 1" gradientUnits="userSpaceOnUse">
         <stop offset="0%" stop-color="rgb(255, 255, 255)" stop-opacity="0"/>
         <stop offset="50.0%" stop-color="rgb(255, 255, 255)" stop-opacity="0.5"/>
         <stop offset="100%" stop-color="rgb(255, 255, 255)" stop-opacity="1"/>
      </linearGradient>
      <linearGradient x1="-60.407" y1="-77.888" x2="-80.281" y2="-195.235" id="linearGradient_34" inkscape:label="Gradient Fill 1" gradientUnits="userSpaceOnUse">
         <stop offset="0%" stop-color="rgb(255, 255, 255)" stop-opacity="0"/>
         <stop offset="50.0%" stop-color="rgb(255, 255, 255)" stop-opacity="0.5"/>
         <stop offset="100%" stop-color="rgb(255, 255, 255)" stop-opacity="1"/>
      </linearGradient>
      <radialGradient cx="0" cy="0" r="125.76027573522572" fx="-1.8082041052219942" fy="9.379291120007862" id="radialGradient_38" inkscape:label="Gradient Fill 1" gradientUnits="userSpaceOnUse">
         <stop offset="65.8%" stop-color="rgb(0, 30, 255)" stop-opacity="1"/>
         <stop offset="85.1%" stop-color="rgb(0, 24, 174)" stop-opacity="1"/>
         <stop offset="99.2%" stop-color="rgb(0, 17, 93)" stop-opacity="1"/>
      </radialGradient>
      <radialGradient cx="0" cy="0" r="125.76027573522572" fx="-1.8082041052219942" fy="9.379291120007862" id="radialGradient_40" inkscape:label="Gradient Fill 1" gradientUnits="userSpaceOnUse">
         <stop offset="65.8%" stop-color="rgb(0, 30, 255)" stop-opacity="1"/>
         <stop offset="85.1%" stop-color="rgb(0, 24, 174)" stop-opacity="1"/>
         <stop offset="99.2%" stop-color="rgb(0, 17, 93)" stop-opacity="1"/>
      </radialGradient>
      <radialGradient cx="0" cy="0" r="125.76027573522572" fx="-1.8082041052219942" fy="9.379291120007862" id="radialGradient_42" inkscape:label="Gradient Fill 1" gradientUnits="userSpaceOnUse">
         <stop offset="65.8%" stop-color="rgb(0, 30, 255)" stop-opacity="1"/>
         <stop offset="85.1%" stop-color="rgb(0, 24, 174)" stop-opacity="1"/>
         <stop offset="99.2%" stop-color="rgb(0, 17, 93)" stop-opacity="1"/>
      </radialGradient>
      <radialGradient cx="0" cy="0" r="125.76027573522572" fx="-1.8082041052219942" fy="9.379291120007862" id="radialGradient_44" inkscape:label="Gradient Fill 1" gradientUnits="userSpaceOnUse">
         <stop offset="65.8%" stop-color="rgb(0, 30, 255)" stop-opacity="1"/>
         <stop offset="85.1%" stop-color="rgb(0, 24, 174)" stop-opacity="1"/>
         <stop offset="99.2%" stop-color="rgb(0, 17, 93)" stop-opacity="1"/>
      </radialGradient>
      <linearGradient x1="-76" y1="172" x2="54" y2="-190" id="Gradient_Stroke_1" inkscape:label="Gradient Stroke 1" gradientUnits="userSpaceOnUse">
         <stop offset="0%" stop-color="rgb(0, 177, 254)" stop-opacity="1"/>
         <stop offset="50.0%" stop-color="rgb(0, 144, 232)" stop-opacity="1"/>
         <stop offset="100%" stop-color="rgb(0, 112, 211)" stop-opacity="1"/>
      </linearGradient>
      <linearGradient x1="-116.5" y1="235.5" x2="31.5" y2="-128.5" id="linearGradient_47" inkscape:label="Gradient Stroke 1" gradientUnits="userSpaceOnUse">
         <stop offset="0%" stop-color="rgb(0, 177, 254)" stop-opacity="1"/>
         <stop offset="50.0%" stop-color="rgb(0, 144, 232)" stop-opacity="1"/>
         <stop offset="100%" stop-color="rgb(0, 112, 211)" stop-opacity="1"/>
      </linearGradient>
      <linearGradient x1="-91.558" y1="187.42" x2="55.123" y2="-191.046" id="linearGradient_50" inkscape:label="Gradient Stroke 1" gradientUnits="userSpaceOnUse">
         <stop offset="0%" stop-color="rgb(0, 177, 254)" stop-opacity="1"/>
         <stop offset="50.0%" stop-color="rgb(0, 144, 232)" stop-opacity="1"/>
         <stop offset="100%" stop-color="rgb(0, 112, 211)" stop-opacity="1"/>
      </linearGradient>
      <linearGradient x1="5.498" y1="198.157" x2="-1.2" y2="-156.488" id="Gradient_9BESieoMzf" inkscape:label="Gradient_9BESieoMzf" gradientUnits="userSpaceOnUse">
         <stop offset="0%" stop-color="rgb(0, 190, 254)" stop-opacity="1"/>
         <stop offset="50.0%" stop-color="rgb(0, 149, 254)" stop-opacity="1"/>
         <stop offset="100%" stop-color="rgb(0, 108, 254)" stop-opacity="1"/>
      </linearGradient>
      <linearGradient x1="5.498" y1="198.157" x2="-1.2" y2="-156.488" id="linearGradient_53" inkscape:label="Gradient_9BESieoMzf" gradientUnits="userSpaceOnUse">
         <stop offset="0%" stop-color="rgb(0, 190, 254)" stop-opacity="1"/>
         <stop offset="50.0%" stop-color="rgb(0, 149, 254)" stop-opacity="1"/>
         <stop offset="100%" stop-color="rgb(0, 108, 254)" stop-opacity="1"/>
      </linearGradient>
      <linearGradient x1="154.0419475462762" y1="161.1390659534719" x2="59.96130109623058" y2="77.93301903063278" id="Gradient_T9UQD1Q69G" inkscape:label="Gradient_T9UQD1Q69G" gradientUnits="userSpaceOnUse">
         <stop offset="0%" stop-color="rgb(255, 255, 255)" stop-opacity="0"/>
         <stop offset="50.0%" stop-color="rgb(255, 255, 255)" stop-opacity="0.5"/>
         <stop offset="100%" stop-color="rgb(255, 255, 255)" stop-opacity="1"/>
      </linearGradient>
      <linearGradient x1="154.0419475462762" y1="161.1390659534719" x2="59.96130109623058" y2="77.93301903063278" id="linearGradient_58" inkscape:label="Gradient_T9UQD1Q69G" gradientUnits="userSpaceOnUse">
         <stop offset="0%" stop-color="rgb(255, 255, 255)" stop-opacity="0"/>
         <stop offset="50.0%" stop-color="rgb(255, 255, 255)" stop-opacity="0.5"/>
         <stop offset="100%" stop-color="rgb(255, 255, 255)" stop-opacity="1"/>
      </linearGradient>
      <radialGradient cx="0" cy="0" r="125.76027573522572" fx="-1.8082041052219942" fy="9.379291120007862" id="radialGradient_63" inkscape:label="Gradient Fill 1" gradientUnits="userSpaceOnUse">
         <stop offset="65.8%" stop-color="rgb(0, 30, 255)" stop-opacity="1"/>
         <stop offset="85.1%" stop-color="rgb(0, 24, 174)" stop-opacity="1"/>
         <stop offset="99.2%" stop-color="rgb(0, 17, 93)" stop-opacity="1"/>
      </radialGradient>
      <radialGradient cx="0" cy="0" r="125.76027573522572" fx="-1.8082041052219942" fy="9.379291120007862" id="radialGradient_65" inkscape:label="Gradient Fill 1" gradientUnits="userSpaceOnUse">
         <stop offset="65.8%" stop-color="rgb(0, 30, 255)" stop-opacity="1"/>
         <stop offset="85.1%" stop-color="rgb(0, 24, 174)" stop-opacity="1"/>
         <stop offset="99.2%" stop-color="rgb(0, 17, 93)" stop-opacity="1"/>
      </radialGradient>
      <radialGradient cx="0" cy="0" r="125.76027573522572" fx="-1.8082041052219942" fy="9.379291120007862" id="radialGradient_68" inkscape:label="Gradient Fill 1" gradientUnits="userSpaceOnUse">
         <stop offset="65.8%" stop-color="rgb(0, 30, 255)" stop-opacity="1"/>
         <stop offset="85.1%" stop-color="rgb(0, 24, 174)" stop-opacity="1"/>
         <stop offset="99.2%" stop-color="rgb(0, 17, 93)" stop-opacity="1"/>
      </radialGradient>
      <radialGradient cx="0" cy="0" r="125.76027573522572" fx="-1.8082041052219942" fy="9.379291120007862" id="radialGradient_70" inkscape:label="Gradient Fill 1" gradientUnits="userSpaceOnUse">
         <stop offset="65.8%" stop-color="rgb(0, 30, 255)" stop-opacity="1"/>
         <stop offset="85.1%" stop-color="rgb(0, 24, 174)" stop-opacity="1"/>
         <stop offset="99.2%" stop-color="rgb(0, 17, 93)" stop-opacity="1"/>
      </radialGradient>
      <linearGradient x1="31.239" y1="169.565" x2="-16.508" y2="-172.887" id="Gradient_dUfi6AB9lP" inkscape:label="Gradient_dUfi6AB9lP" gradientUnits="userSpaceOnUse">
         <stop offset="0%" stop-color="rgb(0, 177, 254)" stop-opacity="1"/>
         <stop offset="50.0%" stop-color="rgb(0, 144, 232)" stop-opacity="1"/>
         <stop offset="100%" stop-color="rgb(0, 112, 211)" stop-opacity="1"/>
      </linearGradient>
      <linearGradient x1="37.344" y1="227.557" x2="-20.324" y2="-95.82" id="Gradient_7Cva5ky2DH" inkscape:label="Gradient_7Cva5ky2DH" gradientUnits="userSpaceOnUse">
         <stop offset="0%" stop-color="rgb(0, 177, 254)" stop-opacity="1"/>
         <stop offset="50.0%" stop-color="rgb(0, 144, 232)" stop-opacity="1"/>
         <stop offset="100%" stop-color="rgb(0, 112, 211)" stop-opacity="1"/>
      </linearGradient>
      <linearGradient x1="31.239" y1="169.565" x2="-16.508" y2="-172.887" id="Gradient_O5UFLRrUfC" inkscape:label="Gradient_O5UFLRrUfC" gradientUnits="userSpaceOnUse">
         <stop offset="0%" stop-color="rgb(0, 177, 254)" stop-opacity="1"/>
         <stop offset="50.0%" stop-color="rgb(0, 144, 232)" stop-opacity="1"/>
         <stop offset="100%" stop-color="rgb(0, 112, 211)" stop-opacity="1"/>
      </linearGradient>
      <linearGradient x1="-132.5" y1="34.5" x2="138" y2="-39" id="Gradient_HGZZLdWG6B" inkscape:label="Gradient_HGZZLdWG6B" gradientUnits="userSpaceOnUse">
         <stop offset="0%" stop-color="rgb(0, 190, 254)" stop-opacity="1"/>
         <stop offset="50.0%" stop-color="rgb(0, 149, 254)" stop-opacity="1"/>
         <stop offset="100%" stop-color="rgb(0, 108, 254)" stop-opacity="1"/>
      </linearGradient>
      <linearGradient x1="-132.5" y1="34.5" x2="138" y2="-39" id="linearGradient_81" inkscape:label="Gradient_HGZZLdWG6B" gradientUnits="userSpaceOnUse">
         <stop offset="0%" stop-color="rgb(0, 190, 254)" stop-opacity="1"/>
         <stop offset="50.0%" stop-color="rgb(0, 149, 254)" stop-opacity="1"/>
         <stop offset="100%" stop-color="rgb(0, 108, 254)" stop-opacity="1"/>
      </linearGradient>
      <radialGradient cx="0" cy="0" r="125.76027573522572" fx="-1.8082041052219942" fy="9.379291120007862" id="radialGradient_92" inkscape:label="Gradient Fill 1" gradientUnits="userSpaceOnUse">
         <stop offset="65.8%" stop-color="rgb(0, 30, 255)" stop-opacity="1"/>
         <stop offset="85.1%" stop-color="rgb(0, 24, 174)" stop-opacity="1"/>
         <stop offset="99.2%" stop-color="rgb(0, 17, 93)" stop-opacity="1"/>
      </radialGradient>
      <radialGradient cx="0" cy="0" r="125.76027573522572" fx="-1.8082041052219942" fy="9.379291120007862" id="radialGradient_94" inkscape:label="Gradient Fill 1" gradientUnits="userSpaceOnUse">
         <stop offset="65.8%" stop-color="rgb(0, 30, 255)" stop-opacity="1"/>
         <stop offset="85.1%" stop-color="rgb(0, 24, 174)" stop-opacity="1"/>
         <stop offset="99.2%" stop-color="rgb(0, 17, 93)" stop-opacity="1"/>
      </radialGradient>
      <radialGradient cx="0" cy="0" r="125.76027573522572" fx="-1.8082041052219942" fy="9.379291120007862" id="radialGradient_97" inkscape:label="Gradient Fill 1" gradientUnits="userSpaceOnUse">
         <stop offset="65.8%" stop-color="rgb(0, 30, 255)" stop-opacity="1"/>
         <stop offset="85.1%" stop-color="rgb(0, 24, 174)" stop-opacity="1"/>
         <stop offset="99.2%" stop-color="rgb(0, 17, 93)" stop-opacity="1"/>
      </radialGradient>
      <radialGradient cx="0" cy="0" r="125.76027573522572" fx="-1.8082041052219942" fy="9.379291120007862" id="radialGradient_99" inkscape:label="Gradient Fill 1" gradientUnits="userSpaceOnUse">
         <stop offset="65.8%" stop-color="rgb(0, 30, 255)" stop-opacity="1"/>
         <stop offset="85.1%" stop-color="rgb(0, 24, 174)" stop-opacity="1"/>
         <stop offset="99.2%" stop-color="rgb(0, 17, 93)" stop-opacity="1"/>
      </radialGradient>
      <linearGradient x1="-1.8193661722088414" y1="-148.2508562959935" x2="-92.56280614874267" y2="-36.492283892888395" id="Gradient_ZTOdeYD6C3" inkscape:label="Gradient_ZTOdeYD6C3" gradientUnits="userSpaceOnUse">
         <stop offset="0%" stop-color="rgb(255, 255, 255)" stop-opacity="0"/>
         <stop offset="50.0%" stop-color="rgb(255, 255, 255)" stop-opacity="0.5"/>
         <stop offset="100%" stop-color="rgb(255, 255, 255)" stop-opacity="1"/>
      </linearGradient>
      <linearGradient x1="-1.8193661722088414" y1="-148.2508562959935" x2="-92.56280614874267" y2="-36.492283892888395" id="linearGradient_102" inkscape:label="Gradient_ZTOdeYD6C3" gradientUnits="userSpaceOnUse">
         <stop offset="0%" stop-color="rgb(255, 255, 255)" stop-opacity="0"/>
         <stop offset="50.0%" stop-color="rgb(255, 255, 255)" stop-opacity="0.5"/>
         <stop offset="100%" stop-color="rgb(255, 255, 255)" stop-opacity="1"/>
      </linearGradient>
      <linearGradient x1="-142.137" y1="22.458" x2="86.365" y2="-17.892" id="Gradient_ZdpSIo2CR6" inkscape:label="Gradient_ZdpSIo2CR6" gradientUnits="userSpaceOnUse">
         <stop offset="0%" stop-color="rgb(0, 177, 254)" stop-opacity="1"/>
         <stop offset="50.0%" stop-color="rgb(0, 144, 232)" stop-opacity="1"/>
         <stop offset="100%" stop-color="rgb(0, 112, 211)" stop-opacity="1"/>
      </linearGradient>
      <linearGradient x1="-57.951" y1="8.639" x2="217.938" y2="-34.54" id="Gradient_WLpihO9S8o" inkscape:label="Gradient_WLpihO9S8o" gradientUnits="userSpaceOnUse">
         <stop offset="0%" stop-color="rgb(0, 177, 254)" stop-opacity="1"/>
         <stop offset="50.0%" stop-color="rgb(0, 144, 232)" stop-opacity="1"/>
         <stop offset="100%" stop-color="rgb(0, 112, 211)" stop-opacity="1"/>
      </linearGradient>
      <linearGradient x1="-143.5" y1="44.5" x2="138" y2="-35" id="Gradient_OMBWnUDtym" inkscape:label="Gradient_OMBWnUDtym" gradientUnits="userSpaceOnUse">
         <stop offset="0%" stop-color="rgb(0, 177, 254)" stop-opacity="1"/>
         <stop offset="50.0%" stop-color="rgb(0, 144, 232)" stop-opacity="1"/>
         <stop offset="100%" stop-color="rgb(0, 112, 211)" stop-opacity="1"/>
      </linearGradient>
      <linearGradient x1="123.153" y1="-34.161" x2="27.818" y2="25.004" id="Gradient_zXQf2X8uXF" inkscape:label="Gradient_zXQf2X8uXF" gradientUnits="userSpaceOnUse">
         <stop offset="0%" stop-color="rgb(0, 177, 254)" stop-opacity="1"/>
         <stop offset="50.0%" stop-color="rgb(0, 144, 232)" stop-opacity="1"/>
         <stop offset="100%" stop-color="rgb(0, 112, 211)" stop-opacity="1"/>
      </linearGradient>
      <linearGradient x1="123.153" y1="-34.161" x2="27.818" y2="25.004" id="linearGradient_110" inkscape:label="Gradient_zXQf2X8uXF" gradientUnits="userSpaceOnUse">
         <stop offset="0%" stop-color="rgb(0, 177, 254)" stop-opacity="1"/>
         <stop offset="50.0%" stop-color="rgb(0, 144, 232)" stop-opacity="1"/>
         <stop offset="100%" stop-color="rgb(0, 112, 211)" stop-opacity="1"/>
      </linearGradient>
      <linearGradient x1="-156.618" y1="45.731" x2="152.321" y2="-42.956" id="Gradient_aM4CQIMWW7" inkscape:label="Gradient_aM4CQIMWW7" gradientUnits="userSpaceOnUse">
         <stop offset="0%" stop-color="rgb(0, 177, 254)" stop-opacity="1"/>
         <stop offset="50.0%" stop-color="rgb(0, 144, 232)" stop-opacity="1"/>
         <stop offset="100%" stop-color="rgb(0, 112, 211)" stop-opacity="1"/>
      </linearGradient>
   </defs>
   <sodipodi:namedview inkscape:pagecheckerboard="true" borderlayer="true" bordercolor="#666666" pagecolor="#ffffff"/>
   <g inkscape:groupmode="layer" id="glow" inkscape:label="glow" transform="matrix(1.0, 0.0, 0.0, 1.0, 255.657, 248.107)" opacity="0.925" style="">
      <g id="Group_1" inkscape:label="Group 1" transform="matrix(1.0, 0.0, 0.0, 1.0, 0.0, 0.0)" style="fill-opacity:1.0;fill:url(#sdfsdfsd);fill-rule:nonzero">
         <path d="M 233.55,-0.008 C 233.55,133.7 128.99699999999999,243.655 0.045,242.091 C -123.069,240.598 -229.83,132.773 -233.46,-0.008 C -237.114,-133.666 -128.91600000000003,-242.107 0.045,-242.107 C 129.006,-242.107 233.55,-133.716 233.55,-0.008 Z" id="Path_1" inkscape:label="Path 1" style="fill-opacity:1.0;fill:url(#radialGradient_1);fill-rule:nonzero"/>
      </g>
   </g>
   <g inkscape:groupmode="layer" id="glow_4" inkscape:label="glow 4" transform="matrix(0.6712600000000001, 0.0, 0.0, 1.0, 247.1954615384615, 256.107)" opacity="0.15381509890997158" style="">
      <g id="g_2" inkscape:label="Group 1" transform="matrix(1.0, 0.0, 0.0, 1.0, 0.0, 0.0)" style="fill-opacity:1.0;fill:url(#radialGradient_3);fill-rule:nonzero">
         <path d="M 233.55,-0.008 C 233.55,133.7 128.99699999999999,243.655 0.045,242.091 C -123.069,240.598 -229.83,132.773 -233.46,-0.008 C -237.114,-133.666 -128.91600000000003,-242.107 0.045,-242.107 C 129.006,-242.107 233.55,-133.716 233.55,-0.008 Z" id="path_4" inkscape:label="Path 1" style="fill-opacity:1.0;fill:url(#radialGradient_5);fill-rule:nonzero"/>
      </g>
   </g>
   <g inkscape:groupmode="layer" id="fx" inkscape:label="fx" transform="matrix(0.0, 0.0, 0.0, 0.0, 329.063, 377.5)" style="">
      <g id="g_6" inkscape:label="fx" transform="matrix(1.0, 0.0, 0.0, 1.0, 329.063, 377.5)" style="fill-opacity:1.0;fill:rgb(255, 255, 255);fill-rule:nonzero">
         <path d="M 0.705,-39.704 C 0.705,-39.704 2.7639999999999993,-0.713 -25.698,0.721 C -25.698,0.721 0.771,3.386000000000003 0.738,39.704 C 0.738,39.704 1.2439999999999998,0.923 25.698,0 C 25.698,0 1.3820000000000001,4.000999999999998 0.705,-39.704 Z" id="path_7" inkscape:label="Path 1" style="fill-opacity:1.0;fill:rgb(255, 255, 255);fill-rule:nonzero"/>
      </g>
   </g>
   <g inkscape:groupmode="layer" id="fx_2" inkscape:label="fx 2" transform="matrix(0.0, 0.0, 0.0, 0.0, 106.063, 321.5)" style="">
      <g id="g_8" inkscape:label="fx" transform="matrix(1.0, 0.0, 0.0, 1.0, 329.063, 377.5)" style="fill-opacity:1.0;fill:rgb(255, 255, 255);fill-rule:nonzero">
         <path d="M 0.705,-39.704 C 0.705,-39.704 2.7639999999999993,-0.713 -25.698,0.721 C -25.698,0.721 0.771,3.386000000000003 0.738,39.704 C 0.738,39.704 1.2439999999999998,0.923 25.698,0 C 25.698,0 1.3820000000000001,4.000999999999998 0.705,-39.704 Z" id="path_9" inkscape:label="Path 1" style="fill-opacity:1.0;fill:rgb(255, 255, 255);fill-rule:nonzero"/>
      </g>
   </g>
   <g inkscape:groupmode="layer" id="fx_3" inkscape:label="fx 3" transform="matrix(0.0, 0.0, 0.0, 0.0, 372.063, 175.5)" style="">
      <g id="g_10" inkscape:label="fx" transform="matrix(1.0, 0.0, 0.0, 1.0, 329.063, 377.5)" style="fill-opacity:1.0;fill:rgb(255, 255, 255);fill-rule:nonzero">
         <path d="M 0.705,-39.704 C 0.705,-39.704 2.7639999999999993,-0.713 -25.698,0.721 C -25.698,0.721 0.771,3.386000000000003 0.738,39.704 C 0.738,39.704 1.2439999999999998,0.923 25.698,0 C 25.698,0 1.3820000000000001,4.000999999999998 0.705,-39.704 Z" id="path_11" inkscape:label="Path 1" style="fill-opacity:1.0;fill:rgb(255, 255, 255);fill-rule:nonzero"/>
      </g>
   </g>
   <g inkscape:groupmode="layer" id="impact_4" inkscape:label="impact 4" transform="matrix(-0.08134510334345132, -0.795853613525781, 0.795853613525781, -0.08134510334345132, 209.61700474759067, 237.40133284100204)" opacity="0.9187050359712233" style="">
      <g inkscape:groupmode="layer" id="Shape_1" inkscape:label="Shape 1" transform="matrix(1.0, 0.0, 0.0, 1.0, 0.0, 0.0)" style="stroke:rgb(94, 169, 255);stroke-opacity:0.08;stroke-width:97.0;stroke-miterlimit:0;stroke-linecap:round;stroke-linejoin:round">
         <g id="Group_16" inkscape:label="Group 16" transform="matrix(1.0, 0.0, 0.0, 1.0, 0.0, 0.0)" style=""/>
         <g id="Group_15" inkscape:label="Group 15" transform="matrix(1.0, 0.0, 0.0, 1.0, 0.0, 0.0)" style="">
            <path d="M -121.48112592932813,76.66151921634052 C -121.48112592932813,76.66151921634052 -149.50978291690996,89.7963351633068 -149.50978291690996,89.7963351633068 " style=""/>
         </g>
         <g id="Group_12" inkscape:label="Group 12" transform="matrix(1.0, 0.0, 0.0, 1.0, 0.0, 0.0)" style=""/>
         <g id="Group_10" inkscape:label="Group 10" transform="matrix(1.0, 0.0, 0.0, 1.0, 0.0, 0.0)" style="">
            <path d="M -113.58150220841023,-117.17213184777293 C -113.58150220841023,-117.17213184777293 -114.06529852307902,-117.31397091601785 -114.06529852307902,-117.31397091601785 " style=""/>
         </g>
         <g id="Group_8" inkscape:label="Group 8" transform="matrix(1.0, 0.0, 0.0, 1.0, 0.0, 0.0)" style="">
            <path d="M -35.310901486367605,-82.55414626339815 C -35.310901486367605,-82.55414626339815 -41.31289224026079,-83.90491628088928 -41.31289224026079,-83.90491628088928 " style=""/>
         </g>
         <g id="Group_7" inkscape:label="Group 7" transform="matrix(1.0, 0.0, 0.0, 1.0, 0.0, 0.0)" style=""/>
         <g id="Group_5" inkscape:label="Group 5" transform="matrix(1.0, 0.0, 0.0, 1.0, 0.0, 0.0)" style=""/>
         <g id="Group_3" inkscape:label="Group 3" transform="matrix(1.0, 0.0, 0.0, 1.0, 0.0, 0.0)" style=""/>
         <g id="g_12" inkscape:label="Group 1" transform="matrix(1.0, 0.0, 0.0, 1.0, 0.0, 0.0)" style="">
            <path d="M -186.51834580874683,181.42598583744854 C -186.51834580874683,181.42598583744854 -189.03802552956597,183.18712994736256 -189.03802552956597,183.18712994736256 " style=""/>
         </g>
      </g>
   </g>
   <g inkscape:groupmode="layer" id="fx_22" inkscape:label="fx 22" transform="matrix(1.902156602950456, 2.3436938856113403, -2.3436938856113403, 1.902156602950456, -470.56973545456765, -1617.2727850828)" style="">
      <g id="Group_2" inkscape:label="Group 2" transform="matrix(1.0, 0.0, 0.0, 1.0, 670.508, 243.277)" style="fill-opacity:1.0;fill:rgb(250, 247, 226);fill-rule:nonzero">
         <path d="M 33.92484154958701,1.9706084459082398 C 33.92484154958701,1.9706084459082398 2.8311510144852416,1.7990271958998352 1.7170547301631232,2.9393231423963817 C 0.6029584458410047,4.079619088892928 0.7721418921190374,43.88316891278599 0.7721418921190374,43.88316891278599 C 0.7721418921190374,43.88316891278599 0.6505652026213846,3.8931548996137897 -0.5847035479753264,3.0132332775669517 C -1.8199722985720375,2.1333116555201137 -38.14961300104019,1.0429290539404814 -38.14961300104019,1.0429290539404814 C -38.14961300104019,1.0429290539404814 -1.5569091227696146,1.4199285470676533 -0.9359136832803663,0.7782148643251674 C -0.314918243791118,0.13650118158268154 0.6187077701226258,-21.318392730967986 0.2691787159132042,-41.842594589143104 C 0.2691787159132042,-41.842594589143104 0.7748746621408106,-0.9948319270714845 1.7309471288188134,0.08599814101806347 C 2.687019595496816,1.1668282091076114 33.92484154958701,1.9706084459082398 33.92484154958701,1.9706084459082398 Z" id="path_13" inkscape:label="Path 1" style="fill-opacity:1.0;fill:rgb(250, 247, 226);fill-rule:nonzero"/>
      </g>
      <g id="g_14" inkscape:label="Group 1" transform="matrix(0.757359797681173, 0.0, 0.0, 0.757359797681173, 671.477, 244.809)" style="fill-opacity:1.0;fill:url(#Gradient_Fill_1);fill-rule:nonzero">
         <path d="M -10.329,-9.969 C -15.979000000000001,-4.6579999999999995 -16.255000000000003,4.228 -10.944,9.878 C -5.633000000000001,15.528 3.251999999999999,15.803 8.902,10.493 C 14.552,5.183000000000001 14.828,-3.7029999999999994 9.518,-9.353 C 4.208000000000001,-15.003 -4.679,-15.28 -10.329,-9.969 Z" id="path_15" inkscape:label="Path 1" style="fill-opacity:1.0;fill:url(#radialGradient_16);fill-rule:nonzero"/>
      </g>
   </g>
   <g inkscape:groupmode="layer" id="fx_23" inkscape:label="fx 23" transform="matrix(1.902156602950456, 2.3436938856113403, -2.3436938856113403, 1.902156602950456, -391.90306878790096, -1686.6061184161333)" style="">
      <g id="g_17" inkscape:label="Group 2" transform="matrix(1.0, 0.0, 0.0, 1.0, 670.508, 243.277)" style="fill-opacity:1.0;fill:rgb(250, 247, 226);fill-rule:nonzero">
         <path d="M 16.51393890675242,1.8634094319399785 C 16.51393890675242,1.8634094319399785 4.540536977491962,3.1788688817434783 3.0175930689531976,4.737025366202214 C 1.494649160414433,6.295181850660951 0.9836059306895323,20.878503036798865 0.9836059306895323,20.878503036798865 C 0.9836059306895323,20.878503036798865 -0.9765066095033932,6.053882815291176 -2.6648238656663095,4.850996070025008 C -4.353141121829226,3.648109324758841 -17.254524473026088,1.3549871382636651 -17.254524473026088,1.3549871382636651 C -17.254524473026088,1.3549871382636651 -4.184897463379778,0.08135798499464164 -3.3360228653090385,-0.7958124330117897 C -2.4871482672382985,-1.672982851018221 -0.08707574133619123,-6.18601500535906 -0.544210432297249,-19.19391782779565 C -0.544210432297249,-19.19391782779565 1.7111450518042148,-3.5140418006430876 3.0177831368345833,-2.037 C 4.324421221864952,-0.5599581993569123 16.51393890675242,1.8634094319399785 16.51393890675242,1.8634094319399785 Z" id="path_18" inkscape:label="Path 1" style="fill-opacity:1.0;fill:rgb(250, 247, 226);fill-rule:nonzero"/>
      </g>
      <g id="g_19" inkscape:label="Group 1" transform="matrix(1.608335119685602, 0.0, 0.0, 1.608335119685602, 671.477, 244.809)" style="fill-opacity:1.0;fill:url(#radialGradient_20);fill-rule:nonzero">
         <path d="M -10.329,-9.969 C -15.979000000000001,-4.6579999999999995 -16.255000000000003,4.228 -10.944,9.878 C -5.633000000000001,15.528 3.251999999999999,15.803 8.902,10.493 C 14.552,5.183000000000001 14.828,-3.7029999999999994 9.518,-9.353 C 4.208000000000001,-15.003 -4.679,-15.28 -10.329,-9.969 Z" id="path_21" inkscape:label="Path 1" style="fill-opacity:1.0;fill:url(#radialGradient_22);fill-rule:nonzero"/>
      </g>
   </g>
   <g inkscape:groupmode="layer" id="fx_24" inkscape:label="fx 24" transform="matrix(-2.234503785093231, 3.8567378674864616, -2.611768357789865, -1.5131975471985255, 2394.643834713337, -2036.5704343627967)" style="">
      <g id="g_23" inkscape:label="Group 2" transform="matrix(1.0, 0.0, 0.0, 1.0, 670.508, 243.277)" style="fill-opacity:1.0;fill:rgb(250, 247, 226);fill-rule:nonzero">
         <path d="M 0.456,1.86 C 0.456,1.86 0.46,1.851 0.46,1.851 C 0.46,1.851 0.467,1.848 0.467,1.848 C 0.467,1.848 0.476,1.851 0.476,1.851 C 0.476,1.851 0.48,1.858 0.48,1.858 C 0.48,1.858 0.477,1.867 0.477,1.867 C 0.477,1.867 0.469,1.871 0.469,1.871 C 0.469,1.871 0.46,1.868 0.46,1.868 C 0.46,1.868 0.456,1.86 0.456,1.86 Z" id="path_24" inkscape:label="Path 1" style="fill-opacity:1.0;fill:rgb(250, 247, 226);fill-rule:nonzero"/>
      </g>
      <g id="g_25" inkscape:label="Group 1" transform="matrix(0.0, 0.0, 0.0, 0.0, 671.477, 244.809)" style="fill-opacity:1.0;fill:url(#radialGradient_26);fill-rule:nonzero">
         <path d="M -10.329,-9.969 C -15.979000000000001,-4.6579999999999995 -16.255000000000003,4.228 -10.944,9.878 C -5.633000000000001,15.528 3.251999999999999,15.803 8.902,10.493 C 14.552,5.183000000000001 14.828,-3.7029999999999994 9.518,-9.353 C 4.208000000000001,-15.003 -4.679,-15.28 -10.329,-9.969 Z" id="path_27" inkscape:label="Path 1" style="fill-opacity:1.0;fill:url(#radialGradient_28);fill-rule:nonzero"/>
      </g>
   </g>
   <g inkscape:groupmode="layer" id="topX" inkscape:label="topX" transform="matrix(1.0, 0.0, 0.0, 1.0, 181.89999999999998, 392.0)" opacity="1">
      <g inkscape:groupmode="layer" id="topY" inkscape:label="topY" transform="matrix(0.8693052636400358, -0.2072393745246407, 0.2072393745246407, 0.8693052636400358, 0.0, -5.129200000000004)" opacity="1">
         <g inkscape:groupmode="layer" id="topcrr" inkscape:label="topcrr" transform="matrix(1.0, 0.0, 0.0, 1.0, -233.0, -422.0)">
            <g inkscape:groupmode="layer" id="top_2" inkscape:label="top 2" transform="matrix(0.9396926207859084, -0.3420201433256687, 0.3420201433256687, 0.9396926207859084, -98.97290617487852, 139.9778383637106)" style="">
               <g inkscape:groupmode="layer" id="g_29" inkscape:label="Group 2" transform="matrix(1.0, 0.0, 0.0, 1.0, 0.0, 0.0)" style="">
                  <g id="f1" inkscape:label="f1" transform="matrix(1.0, 0.0, 0.0, 1.0, 319.558, 215.58)" style="fill-opacity:0.25;fill:rgb(231, 223, 201);fill-rule:nonzero">
                     <path d="M -128.039,149.546 C -128.039,149.546 -66.337375,186.70524999999998 -66.337375,186.70524999999998 C -66.337375,186.70524999999998 -28.472,185.908 -28.472,185.908 C -28.472,185.908 105.995,-18.491 105.995,-18.491 C 105.995,-18.491 41.858,-177.109 41.858,-177.109 C 41.858,-177.109 -107.151,-95.272 -107.151,-95.272 C -107.151,-95.272 -128.039,149.546 -128.039,149.546 Z" id="path_30" inkscape:label="Path 1" style="fill-opacity:0.25;fill:rgb(231, 223, 201);fill-rule:nonzero"/>
                  </g>
                  <g id="f2" inkscape:label="f2" transform="matrix(1.0, 0.0, 0.0, 1.0, 253.51, 254.809)" style="fill-opacity:0.25;fill:rgb(218, 218, 218);fill-rule:nonzero">
                     <path d="M -41.999,-134.943 C -41.999,-134.943 95.80212500000002,-68.694375 95.80212500000002,-68.694375 C 95.80212500000002,-68.694375 -1.4779999999999855,150.86175 -1.4779999999999855,150.86175 C -1.4779999999999855,150.86175 -62.935,110.818 -62.935,110.818 C -62.935,110.818 -41.999,-134.943 -41.999,-134.943 Z" id="path_31" inkscape:label="Path 1" style="fill-opacity:0.25;fill:rgb(218, 218, 218);fill-rule:nonzero"/>
                  </g>
                  <g id="f3" inkscape:label="f3" transform="matrix(1.0, 0.0, 0.0, 1.0, 380.06, 116.625)" style="fill-opacity:1.0;fill:url(#linearGradient_32);fill-rule:nonzero">
                     <path d="M -18.117,-79.709 C -18.117,-79.709 -30.748874999999973,69.49025 -30.748874999999973,69.49025 C -30.748874999999973,69.49025 46.2775,79.58175 46.2775,79.58175 C 46.2775,79.58175 -18.117,-79.709 -18.117,-79.709 Z" id="path_33" inkscape:label="Path 1" style="fill-opacity:1.0;fill:url(#linearGradient_34);fill-rule:nonzero"/>
                  </g>
                  <g id="f4" inkscape:label="f4" transform="matrix(1.0, 0.0, 0.0, 1.0, 286.452, 116.625)" style="fill-opacity:0.25;fill:rgb(215, 214, 209);fill-rule:nonzero">
                     <path d="M 75.491,-79.709 C 75.491,-79.709 62.859125000000034,69.49025 62.859125000000034,69.49025 C 62.859125000000034,69.49025 -74.937,3.406 -74.937,3.406 C -74.937,3.406 75.491,-79.709 75.491,-79.709 Z" id="path_35" inkscape:label="Path 1" style="fill-opacity:0.25;fill:rgb(215, 214, 209);fill-rule:nonzero"/>
                  </g>
                  <g id="g_36" inkscape:label="Group 1" transform="matrix(0.8856320421152264, 0.38800965964626916, -0.40129243939008086, 0.9159499866741405, 278.18977685299313, 259.4807471531751)" style="">
                     <g id="g_37" inkscape:label="Shape 1" transform="matrix(1.0, 0.0, 0.0, 1.0, 0.0, 0.0)" style="fill-opacity:1.0;fill:url(#radialGradient_38);fill-rule:nonzero;stroke:rgb(186, 222, 255);stroke-opacity:1.0;stroke-width:10.0;stroke-miterlimit:4.0;stroke-linecap:butt;stroke-linejoin:miter">
                        <path d="M 98.26100000000001,-1.9530000000000003 C 92.76100000000001,1.0469999999999997 91.86533333333334,1.9626666666666672 82.86533333333334,4.212666666666667 C 76.33933333333334,5.8436666666666675 77.69500000000001,2.2119999999999997 70.19500000000001,3.7119999999999997 C 62.69500000000001,5.212 59.352666666666664,11.618666666666666 54.428666666666665,11.618666666666666 C 45.928666666666665,11.618666666666666 47.848000000000006,10.845666666666668 39.348000000000006,11.345666666666668 C 30.848000000000006,11.845666666666668 31.760666666666665,14.729333333333333 24.260666666666665,15.229333333333333 C 16.760666666666665,15.729333333333333 20.355666666666668,10.777333333333335 9.355666666666668,10.777333333333335 C -1.644333333333332,10.777333333333335 0.5959999999999992,12.930333333333335 -7.404000000000001,12.930333333333335 C -15.404,12.930333333333335 -12.861333333333334,10.096 -24.361333333333334,10.096 C -35.861333333333334,10.096 -31.973333333333333,11.530333333333333 -41.12266666666667,11.064333333333334 C -50.097,10.618 -50.400999999999996,10.317 -60.900999999999996,8.317 C -71.401,6.317 -75.80600000000001,7.075000000000001 -84.141,8.742 C -86.641,9.242 -41.403000000000006,132.073 -41.403000000000006,132.073 C -41.403000000000006,132.073 29.804333333333336,129.75733333333335 29.804333333333336,129.75733333333335 C 29.804333333333336,129.75733333333335 73.35466666666667,123.43933333333334 73.35466666666667,123.43933333333334 C 73.35466666666667,123.43933333333334 103.76100000000001,-4.953 98.26100000000001,-1.9530000000000003 Z" id="path_39" inkscape:label="Path 1" style="fill-opacity:1.0;fill:url(#radialGradient_40);fill-rule:nonzero"/>
                     </g>
                  </g>
                  <g id="Group_4" inkscape:label="Group 4" transform="matrix(0.8856320421152264, 0.38800965964626916, -0.40129243939008086, 0.9159499866741405, 278.18977685299313, 259.4807471531751)" style="">
                     <g id="g_41" inkscape:label="Shape 1" transform="matrix(1.0, 0.0, 0.0, 1.0, 0.0, 0.0)" style="fill-opacity:1.0;fill:url(#radialGradient_42);fill-rule:nonzero;stroke:rgb(95, 175, 246);stroke-opacity:1.0;stroke-width:10.0;stroke-miterlimit:4.0;stroke-linecap:butt;stroke-linejoin:miter">
                        <path d="M 100.732,-4.285 C 95.232,-1.2850000000000001 92.075,6.513 83.075,8.763 C 76.549,10.394 77.235,-0.524 69.735,0.976 C 62.235,2.476 59.455,16.257 54.531,16.257 C 46.031,16.257 48.047,6.757 39.547,7.257 C 31.046999999999997,7.757 31.767,19.003 24.267,19.503 C 16.767,20.003 20.558999999999997,6.507 9.559,6.507 C -1.4410000000000007,6.507 0.508,16.748 -7.492,16.748 C -15.492,16.748 -12.639,5.008 -24.139,5.008 C -35.638999999999996,5.008 -32.814,15.976 -42.049,14.958 C -51.009,13.971 -51.562,5.965 -62.062,3.965 C -72.562,1.9649999999999999 -76.46199999999999,9.291 -84.797,10.958 C -87.297,11.458 -43.272,131.949 -43.272,131.949 C -43.272,131.949 32.308,143.267 32.308,143.267 C 32.308,143.267 74.793,123.973 74.793,123.973 C 74.793,123.973 106.232,-7.285 100.732,-4.285 Z" id="path_43" inkscape:label="Path 1" style="fill-opacity:1.0;fill:url(#radialGradient_44);fill-rule:nonzero"/>
                     </g>
                  </g>
                  <g id="str2" inkscape:label="str2" transform="matrix(1.0, 0.0, 0.0, 1.0, 297.447, 214.79)" style="stroke:url(#Gradient_Stroke_1);stroke-opacity:1.0;stroke-width:18.0;stroke-miterlimit:0;stroke-linecap:butt;stroke-linejoin:round">
                     <path d="M -44.22637499999999,187.49525 C -44.22637499999999,187.49525 54.67612500000003,-31.854124999999996 54.67612500000003,-31.854124999999996 C 54.67612500000003,-31.854124999999996 63.97,-176.319 63.97,-176.319 " id="path_45" inkscape:label="Path 1" style=""/>
                  </g>
                  <g id="str" inkscape:label="str" transform="matrix(1.0, 0.0, 0.0, 1.0, 329.063, 156.227)" style="stroke:url(#linearGradient_47);stroke-opacity:1.0;stroke-width:18.0;stroke-miterlimit:0;stroke-linecap:butt;stroke-linejoin:round">
                     <path d="M -116.655,-35.919 C -116.655,-35.919 23.060500000000026,26.709500000000006 23.060500000000026,26.709500000000006 C 23.060500000000026,26.709500000000006 96.49,40.862 96.49,40.862 " id="path_46" inkscape:label="Path 1" style=""/>
                  </g>
                  <g id="high" inkscape:label="high" transform="matrix(1.0, 0.0, 0.0, 1.0, 313.373, 194.338)" opacity="0.5" style="stroke:rgb(228, 228, 228);stroke-opacity:1.0;stroke-width:18.0;stroke-miterlimit:0;stroke-linecap:round;stroke-linejoin:round">
                     <path d="M -112.80200000000002,87.283 C -112.80200000000002,87.283 -88.271875,-67.83425 -88.271875,-67.83425 C -88.271875,-67.83425 41.654,-136.933 41.654,-136.933 C 41.654,-136.933 100.47225,1.0981249999999996 100.47225,1.0981249999999996 C 100.47225,1.0981249999999996 19.013,136.933 19.013,136.933 " id="path_48" inkscape:label="Path 1" style=""/>
                  </g>
                  <g id="outl" inkscape:label="outl" transform="matrix(1.0, 0.0, 0.0, 1.0, 319.558, 215.58)" style="stroke:url(#linearGradient_50);stroke-opacity:1.0;stroke-width:18.0;stroke-miterlimit:0;stroke-linecap:round;stroke-linejoin:round">
                     <path d="M -128.039,149.546 C -128.039,149.546 -66.337375,186.70524999999998 -66.337375,186.70524999999998 C -66.337375,186.70524999999998 -28.472,185.908 -28.472,185.908 C -28.472,185.908 105.995,-18.491 105.995,-18.491 C 105.995,-18.491 41.858,-177.109 41.858,-177.109 C 41.858,-177.109 -107.151,-95.272 -107.151,-95.272 C -107.151,-95.272 -128.039,149.546 -128.039,149.546 Z" id="path_49" inkscape:label="Path 1" style=""/>
                  </g>
               </g>
            </g>
         </g>
      </g>
   </g>
   <g inkscape:groupmode="layer" id="midX" inkscape:label="midX" transform="matrix(1.0, 0.0, 0.0, 1.0, 240.2608695652174, 446.0)" opacity="1">
      <g inkscape:groupmode="layer" id="midY" inkscape:label="midY" transform="matrix(1.2939240775865826, 0.10050230852992564, -0.10050230852992564, 1.2939240775865826, 0.0, 19.791999999999998)" opacity="1">
         <g inkscape:groupmode="layer" id="midcrrr" inkscape:label="midcrrr" transform="matrix(1.0, 0.0, 0.0, 1.0, -187.0, -403.0)">
            <g inkscape:groupmode="layer" id="mid_3" inkscape:label="mid 3" transform="matrix(0.984807753012208, 0.17364817766693033, -0.17364817766693033, 0.984807753012208, 115.40618742381157, -62.092980022559004)" style="">
               <g inkscape:groupmode="layer" id="g_51" inkscape:label="Group 2" transform="matrix(1.0, 0.0, 0.0, 1.0, 0.0, 0.0)" style="">
                  <g id="fill" inkscape:label="fill" transform="matrix(1.0, 0.0, 0.0, 1.0, 122.456, 295.928)" style="fill-opacity:1.0;fill:url(#Gradient_9BESieoMzf);fill-rule:nonzero">
                     <path d="M -13.027333333333333,149.417 C -13.027333333333333,149.417 -2.25222222222222,164.36877777777778 -2.25222222222222,164.36877777777778 C -2.25222222222222,164.36877777777778 90.68744444444444,143.4498888888889 90.68744444444444,143.4498888888889 C 90.68744444444444,143.4498888888889 95.98677777777777,-59.60055555555556 95.98677777777777,-59.60055555555556 C 95.98677777777777,-59.60055555555556 -10.392777777777779,-159.26277777777779 -10.392777777777779,-159.26277777777779 C -10.392777777777779,-159.26277777777779 -90.16522222222221,-24.774555555555555 -90.16522222222221,-24.774555555555555 C -90.16522222222221,-24.774555555555555 -13.027333333333333,149.417 -13.027333333333333,149.417 Z" id="path_52" inkscape:label="Path 1" style="fill-opacity:1.0;fill:url(#linearGradient_53);fill-rule:nonzero"/>
                  </g>
                  <g id="g_54" inkscape:label="f1" transform="matrix(1.0, 0.0, 0.0, 1.0, 90.89, 347.291)" style="fill-opacity:0.35;fill:rgb(168, 168, 168);fill-rule:nonzero">
                     <path d="M -59.90822222222222,-74.0398888888889 C -59.90822222222222,-74.0398888888889 -47.25977777777777,-70.88722222222222 -47.25977777777777,-70.88722222222222 C -47.25977777777777,-70.88722222222222 29.116777777777784,115.38555555555556 29.116777777777784,115.38555555555556 C 29.116777777777784,115.38555555555556 21.589333333333332,111.19633333333334 21.589333333333332,111.19633333333334 C 21.589333333333332,111.19633333333334 -59.90822222222222,-74.0398888888889 -59.90822222222222,-74.0398888888889 Z" id="path_55" inkscape:label="Path 1" style="fill-opacity:0.35;fill:rgb(168, 168, 168);fill-rule:nonzero"/>
                  </g>
                  <g id="g_56" inkscape:label="f2" transform="matrix(1.0, 0.0, 0.0, 1.0, 161.686, 328.071)" style="fill-opacity:1.0;fill:url(#Gradient_T9UQD1Q69G);fill-rule:nonzero">
                     <path d="M 57.79111111111111,-93.86733333333333 C 57.79111111111111,-93.86733333333333 -120.18333333333334,-55.55777777777778 -120.18333333333334,-55.55777777777778 C -120.18333333333334,-55.55777777777778 -41.809777777777775,133.15822222222224 -41.809777777777775,133.15822222222224 C -41.809777777777775,133.15822222222224 52.48022222222222,113.60744444444444 52.48022222222222,113.60744444444444 C 52.48022222222222,113.60744444444444 57.79111111111111,-93.86733333333333 57.79111111111111,-93.86733333333333 Z" id="path_57" inkscape:label="Path 1" style="fill-opacity:1.0;fill:url(#linearGradient_58);fill-rule:nonzero"/>
                  </g>
                  <g id="g_59" inkscape:label="f3" transform="matrix(1.0, 0.0, 0.0, 1.0, 161.686, 199.079)" style="fill-opacity:0.2;fill:rgb(239, 239, 239);fill-rule:nonzero">
                     <path d="M -49.483444444444444,-64.69522222222221 C -49.483444444444444,-64.69522222222221 -118.02477777777776,77.33977777777778 -118.02477777777776,77.33977777777778 C -118.02477777777776,77.33977777777778 59.96166666666666,38.46311111111112 59.96166666666666,38.46311111111112 C 59.96166666666666,38.46311111111112 -49.483444444444444,-64.69522222222221 -49.483444444444444,-64.69522222222221 Z" id="path_60" inkscape:label="Path 1" style="fill-opacity:0.2;fill:rgb(239, 239, 239);fill-rule:nonzero"/>
                  </g>
                  <g id="g_61" inkscape:label="Group 2" transform="matrix(0.8814461076585755, -0.12785072621439017, 0.14354443981989984, 0.9896438722069627, 126.70474875578122, 327.7605401936959)" style="">
                     <g id="g_62" inkscape:label="Shape 1" transform="matrix(1.0, 0.0, 0.0, 1.0, 0.0, 0.0)" style="fill-opacity:1.0;fill:url(#radialGradient_63);fill-rule:nonzero;stroke:rgb(176, 218, 255);stroke-opacity:1.0;stroke-width:10.0;stroke-miterlimit:4.0;stroke-linecap:butt;stroke-linejoin:miter">
                        <path d="M 92.896,-2.517 C 87.396,0.4830000000000001 91.813,0.8250000000000002 82.813,3.075 C 76.287,4.706 77.81,2.896 70.31,4.396 C 62.81,5.896 59.327,10.459 54.403,10.459 C 45.903,10.459 47.798,11.868 39.298,12.368 C 30.798000000000002,12.868 31.759,13.661 24.259,14.161 C 16.759,14.661 20.305,11.845 9.305,11.845 C -1.6950000000000003,11.845 0.6180000000000003,11.976 -7.382,11.976 C -15.382,11.976 -12.917000000000002,11.368 -24.417,11.368 C -35.917,11.368 -31.762999999999998,10.418999999999999 -40.891,10.091 C -49.869,9.78 -49.66,11.562 -60.16,9.562 C -70.66,7.561999999999999 -57.574000000000005,5.034 -65.909,6.701 C -68.409,7.201 -32.617,117.736 -32.617,117.736 C -32.617,117.736 20.677,133.66 20.677,133.66 C 20.677,133.66 71.523,111.905 71.523,111.905 C 71.523,111.905 98.396,-5.5169999999999995 92.896,-2.517 Z" id="path_64" inkscape:label="Path 1" style="fill-opacity:1.0;fill:url(#radialGradient_65);fill-rule:nonzero"/>
                     </g>
                  </g>
                  <g id="g_66" inkscape:label="Group 1" transform="matrix(0.8814461076585755, -0.12785072621439017, 0.14354443981989984, 0.9896438722069627, 126.70474875578122, 327.7605401936959)" style="">
                     <g id="g_67" inkscape:label="Shape 1" transform="matrix(1.0, 0.0, 0.0, 1.0, 0.0, 0.0)" style="fill-opacity:1.0;fill:url(#radialGradient_68);fill-rule:nonzero;stroke:rgb(95, 175, 246);stroke-opacity:1.0;stroke-width:10.0;stroke-miterlimit:4.0;stroke-linecap:butt;stroke-linejoin:miter">
                        <path d="M 100.1,2.2503333333333337 C 94.6,5.250333333333334 91.60433333333333,-3.7250000000000005 82.60433333333333,-1.4750000000000005 C 76.07833333333333,0.15599999999999947 78.27,5.632 70.77,7.132 C 63.269999999999996,8.632 59.225,5.8196666666666665 54.301,5.8196666666666665 C 45.801,5.8196666666666665 47.599333333333334,15.956 39.099333333333334,16.456 C 30.599333333333334,16.956 31.753,9.386999999999999 24.253,9.886999999999999 C 16.753,10.386999999999999 20.101666666666667,16.115000000000002 9.101666666666667,16.115000000000002 C -1.8983333333333334,16.115000000000002 0.7059999999999995,8.158666666666667 -7.2940000000000005,8.158666666666667 C -15.294,8.158666666666667 -13.139000000000003,16.456 -24.639000000000003,16.456 C -36.139,16.456 -30.921,5.972999999999999 -39.96366666666667,6.196999999999999 C -48.95633333333333,6.426666666666666 -48.8,15.809999999999999 -59.3,13.809999999999999 C -69.8,11.809999999999999 -62.69466666666667,2.316 -71.02966666666667,3.9829999999999997 C -73.52966666666667,4.483 -36.30233333333334,123.624 -36.30233333333334,123.624 C -36.30233333333334,123.624 15.228333333333332,130.002 15.228333333333332,130.002 C 15.228333333333332,130.002 78.30033333333333,120.13566666666668 78.30033333333333,120.13566666666668 C 78.30033333333333,120.13566666666668 105.6,-0.7496666666666663 100.1,2.2503333333333337 Z" id="path_69" inkscape:label="Path 1" style="fill-opacity:1.0;fill:url(#radialGradient_70);fill-rule:nonzero"/>
                     </g>
                  </g>
                  <g id="str1" inkscape:label="str1" transform="matrix(1.0, 0.0, 0.0, 1.0, 130.562, 295.928)" style="stroke:url(#Gradient_dUfi6AB9lP);stroke-opacity:1.0;stroke-width:18.0;stroke-miterlimit:0;stroke-linecap:round;stroke-linejoin:round">
                     <path d="M -14.99733333333333,152.02833333333334 C -14.99733333333333,152.02833333333334 -87.42833333333333,-23.96933333333333 -87.42833333333333,-23.96933333333333 C -87.42833333333333,-23.96933333333333 -18.497888888888887,-159.26277777777779 -18.497888888888887,-159.26277777777779 " id="path_71" inkscape:label="Path 1" style=""/>
                  </g>
                  <g id="g_72" inkscape:label="str2" transform="matrix(1.0, 0.0, 0.0, 1.0, 122.456, 230.142)" style="stroke:url(#Gradient_7Cva5ky2DH);stroke-opacity:1.0;stroke-width:18.0;stroke-miterlimit:0;stroke-linecap:round;stroke-linejoin:round">
                     <path d="M 95.98677777777777,6.185444444444444 C 95.98677777777777,6.185444444444444 -79.32233333333332,41.81666666666666 -79.32233333333332,41.81666666666666 C -79.32233333333332,41.81666666666666 -90.16522222222221,41.010555555555555 -90.16522222222221,41.010555555555555 " id="path_73" inkscape:label="Path 1" style=""/>
                  </g>
               </g>
               <g inkscape:groupmode="layer" id="g_74" inkscape:label="high" transform="matrix(1.0, 0.0, 0.0, 1.0, 124.08, 284.06)" opacity="0.5" style="stroke:rgb(255, 255, 255);stroke-opacity:1.0;stroke-width:18.0;stroke-miterlimit:0;stroke-linecap:round;stroke-linejoin:round">
                  <path d="M -22.946,131.798 C -22.946,131.798 -75.86344444444444,-14.885111111111112 -75.86344444444444,-14.885111111111112 C -75.86344444444444,-14.885111111111112 -9.595,-130.40744444444445 -9.595,-130.40744444444445 C -9.595,-130.40744444444445 79.16055555555556,-44.78911111111111 79.16055555555556,-44.78911111111111 C 79.16055555555556,-44.78911111111111 86.54077777777778,118.89122222222223 86.54077777777778,118.89122222222223 " id="path_75" inkscape:label="Path 1" style=""/>
               </g>
               <g inkscape:groupmode="layer" id="g_76" inkscape:label="Group 1" transform="matrix(1.0, 0.0, 0.0, 1.0, 0.0, 0.0)" style="">
                  <g id="g_77" inkscape:label="outl" transform="matrix(1.0, 0.0, 0.0, 1.0, 122.456, 295.928)" style="stroke:url(#Gradient_O5UFLRrUfC);stroke-opacity:1.0;stroke-width:18.0;stroke-miterlimit:0;stroke-linecap:round;stroke-linejoin:round">
                     <path d="M -13.027333333333333,149.417 C -13.027333333333333,149.417 -2.25222222222222,164.36877777777778 -2.25222222222222,164.36877777777778 C -2.25222222222222,164.36877777777778 90.68744444444444,143.4498888888889 90.68744444444444,143.4498888888889 C 90.68744444444444,143.4498888888889 95.98677777777777,-59.60055555555556 95.98677777777777,-59.60055555555556 C 95.98677777777777,-59.60055555555556 -10.392777777777779,-159.26277777777779 -10.392777777777779,-159.26277777777779 C -10.392777777777779,-159.26277777777779 -90.16522222222221,-24.774555555555555 -90.16522222222221,-24.774555555555555 C -90.16522222222221,-24.774555555555555 -13.027333333333333,149.417 -13.027333333333333,149.417 Z" id="path_78" inkscape:label="Path 1" style=""/>
                  </g>
               </g>
            </g>
         </g>
      </g>
   </g>
   <g inkscape:groupmode="layer" id="bottX" inkscape:label="bottX" transform="matrix(1.0, 0.0, 0.0, 1.0, 291.7894736842105, 408.0)" opacity="1">
      <g inkscape:groupmode="layer" id="bottY" inkscape:label="bottY" transform="matrix(0.7974180577730736, 0.07962510232753194, -0.07962510232753194, 0.7974180577730736, 0.0, -224.6341463414634)" opacity="1">
         <g inkscape:groupmode="layer" id="bottcr_2" inkscape:label="bottcr 2" transform="matrix(1.0, 0.0, 0.0, 1.0, -183.0, -173.0)">
            <g inkscape:groupmode="layer" id="bott_2" inkscape:label="bott 2" transform="matrix(-0.15024284432597684, 0.988649122656183, -0.988649122656183, -0.15024284432597684, 624.6354006273054, -87.94074230498052)" style="">
               <g inkscape:groupmode="layer" id="g_79" inkscape:label="Group 2" transform="matrix(1.0, 0.0, 0.0, 1.0, 0.0, 0.0)" style="">
                  <g id="base" inkscape:label="base" transform="matrix(1.0, 0.0, 0.0, 1.0, 314.618, 398.269)" style="fill-opacity:1.0;fill:url(#Gradient_HGZZLdWG6B);fill-rule:nonzero">
                     <path d="M 36.44733333333333,-92.36366666666666 C 36.44733333333333,-92.36366666666666 134.522,-20.692 134.522,-20.692 C 134.522,-20.692 68.36733333333333,73.05733333333333 68.36733333333333,73.05733333333333 C 68.36733333333333,73.05733333333333 -43.791,91.30666666666667 -43.791,91.30666666666667 C -43.791,91.30666666666667 -134.459,23.601 -134.459,23.601 C -134.459,23.601 -75.23233333333334,-68.74333333333334 -75.23233333333334,-68.74333333333334 C -75.23233333333334,-68.74333333333334 36.44733333333333,-92.36366666666666 36.44733333333333,-92.36366666666666 Z" id="path_80" inkscape:label="Path 1" style="fill-opacity:1.0;fill:url(#linearGradient_81);fill-rule:nonzero"/>
                  </g>
                  <g id="f6" inkscape:label="f6" transform="matrix(1.0, 0.0, 0.0, 1.0, 300.881, 335.248)" style="fill-opacity:0.25;fill:rgb(178, 178, 178);fill-rule:nonzero">
                     <path d="M -61.08833333333333,-3.8153333333333332 C -61.08833333333333,-3.8153333333333332 -47.751333333333335,19.216666666666672 -47.751333333333335,19.216666666666672 C -47.751333333333335,19.216666666666672 67.019,3.37766666666667 67.019,3.37766666666667 C 67.019,3.37766666666667 49.095666666666666,-31.53033333333334 49.095666666666666,-31.53033333333334 C 49.095666666666666,-31.53033333333334 -61.08833333333333,-3.8153333333333332 -61.08833333333333,-3.8153333333333332 Z" id="path_82" inkscape:label="Path 1" style="fill-opacity:0.25;fill:rgb(178, 178, 178);fill-rule:nonzero"/>
                  </g>
                  <g id="f5" inkscape:label="f5" transform="matrix(1.0, 0.0, 0.0, 1.0, 225.201, 408.485)" style="fill-opacity:0.25;fill:rgb(216, 217, 217);fill-rule:nonzero">
                     <path d="M 28.02466666666667,-54.090666666666664 C 28.02466666666667,-54.090666666666664 46.494,25.907000000000004 46.494,25.907000000000004 C 46.494,25.907000000000004 -42.146,12.525 -42.146,12.525 C -42.146,12.525 28.02466666666667,-54.090666666666664 28.02466666666667,-54.090666666666664 Z" id="path_83" inkscape:label="Path 1" style="fill-opacity:0.25;fill:rgb(216, 217, 217);fill-rule:nonzero"/>
                  </g>
                  <g id="g_84" inkscape:label="f4" transform="matrix(1.0, 0.0, 0.0, 1.0, 217.387, 382.541)" style="fill-opacity:0.25;fill:rgb(195, 195, 195);fill-rule:nonzero">
                     <path d="M 22.371666666666666,-51.217 C 22.371666666666666,-51.217 -34.332,38.469 -34.332,38.469 C -34.332,38.469 35.370000000000005,-28.368666666666662 35.370000000000005,-28.368666666666662 C 35.370000000000005,-28.368666666666662 22.371666666666666,-51.217 22.371666666666666,-51.217 Z" id="path_85" inkscape:label="Path 1" style="fill-opacity:0.25;fill:rgb(195, 195, 195);fill-rule:nonzero"/>
                  </g>
                  <g id="g_86" inkscape:label="f3" transform="matrix(1.0, 0.0, 0.0, 1.0, 341.753, 459.135)" style="fill-opacity:0.25;fill:rgb(216, 216, 216);fill-rule:nonzero">
                     <path d="M 45.727000000000004,-46.25133333333333 C 45.727000000000004,-46.25133333333333 39.928,12.038666666666668 39.928,12.038666666666668 C 39.928,12.038666666666668 -68.29666666666667,27.620666666666665 -68.29666666666667,27.620666666666665 C -68.29666666666667,27.620666666666665 -70.24199999999999,-24.831999999999997 -70.24199999999999,-24.831999999999997 C -70.24199999999999,-24.831999999999997 45.727000000000004,-46.25133333333333 45.727000000000004,-46.25133333333333 Z" id="path_87" inkscape:label="Path 1" style="fill-opacity:0.25;fill:rgb(216, 216, 216);fill-rule:nonzero"/>
                  </g>
                  <g id="g_88" inkscape:label="f1" transform="matrix(1.0, 0.0, 0.0, 1.0, 391.031, 331.929)" style="fill-opacity:0.25;fill:rgb(230, 230, 230);fill-rule:nonzero">
                     <path d="M -41.068333333333335,-27.970666666666666 C -41.068333333333335,-27.970666666666666 -23.223999999999997,6.732000000000002 -23.223999999999997,6.732000000000002 C -23.223999999999997,6.732000000000002 61.36999999999999,46.661 61.36999999999999,46.661 C 61.36999999999999,46.661 -41.068333333333335,-27.970666666666666 -41.068333333333335,-27.970666666666666 Z" id="path_89" inkscape:label="Path 1" style="fill-opacity:0.25;fill:rgb(230, 230, 230);fill-rule:nonzero"/>
                  </g>
                  <g id="g_90" inkscape:label="Group 2" transform="matrix(-0.16007242288113221, -0.9277824311404932, 0.9854405582008233, -0.1700203112950028, 322.1122081920576, 404.6419227634783)" style="">
                     <g id="g_91" inkscape:label="Shape 1" transform="matrix(1.0, 0.0, 0.0, 1.0, 0.0, 0.0)" style="fill-opacity:1.0;fill:url(#radialGradient_92);fill-rule:nonzero;stroke:rgb(199, 229, 255);stroke-opacity:1.0;stroke-width:10.0;stroke-miterlimit:4.0;stroke-linecap:butt;stroke-linejoin:miter">
                        <path d="M 96.36513189582752,-3.908912909549147 C 90.86513189582752,-0.908912909549147 92.01880425651079,5.290082889946795 83.01880425651079,7.540082889946796 C 76.4928042565108,9.171082889946796 77.35863063567629,0.2113335200224009 69.85863063567629,1.711333520022401 C 62.35863063567629,3.211333520022401 59.42753738448614,15.010236348361808 54.503537384486144,15.010236348361808 C 46.003537384486144,15.010236348361808 47.99354074488939,7.855797815737887 39.49354074488939,8.355797815737887 C 30.993540744889387,8.855797815737887 31.765338560627278,17.854359003080376 24.265338560627278,18.354359003080376 C 16.765338560627278,18.854359003080376 20.504367964155698,7.654663679641555 9.5043679641557,7.654663679641555 C -1.4956320358443005,7.654663679641555 0.5316510781293751,15.72201232147858 -7.468348921870625,15.72201232147858 C -15.468348921870625,15.72201232147858 -12.698714085690284,6.375462335480254 -24.198714085690284,6.375462335480254 C -35.698714085690284,6.375462335480254 -32.58784878185382,14.781131895827501 -41.7998818258191,13.911488658639039 C -50.76379109493139,13.069815737888549 -50.76089890786894,7.3757194063287566 -61.26089890786894,5.3757194063287566 C -71.76089890786895,3.3757194063287566 -71.32899775973118,8.683307476897228 -79.66399775973117,10.350307476897228 C -82.16399775973117,10.850307476897228 -76.75000000000001,44.0 -76.75000000000001,44.0 C -76.75000000000001,44.0 11.0,123.25 11.0,123.25 C 11.0,123.25 100.0,40.0 100.0,40.0 C 100.0,40.0 101.86513189582752,-6.908912909549147 96.36513189582752,-3.908912909549147 Z" id="path_93" inkscape:label="Path 1" style="fill-opacity:1.0;fill:url(#radialGradient_94);fill-rule:nonzero"/>
                     </g>
                  </g>
                  <g id="g_95" inkscape:label="Group 1" transform="matrix(-0.16007242288113221, -0.9277824311404932, 0.9854405582008233, -0.1700203112950028, 322.1122081920576, 404.6419227634783)" style="">
                     <g id="g_96" inkscape:label="Shape 1" transform="matrix(1.0, 0.0, 0.0, 1.0, 0.0, 0.0)" style="fill-opacity:1.0;fill:url(#radialGradient_97);fill-rule:nonzero;stroke:rgb(95, 175, 246);stroke-opacity:1.0;stroke-width:10.0;stroke-miterlimit:4.0;stroke-linecap:butt;stroke-linejoin:miter">
                        <path d="M 95.81361698553431,-2.7337086327578155 C 90.31361698553431,0.2662913672421845 91.80920671955204,0.7288759682687802 82.80920671955204,2.97887596826878 C 76.28320671955204,4.60987596826878 77.81974521698552,2.953962855809614 70.31974521698552,4.453962855809614 C 62.819745216985524,5.953962855809614 59.32510797946804,10.360087167522165 54.40110797946804,10.360087167522165 C 45.90110797946804,10.360087167522165 47.79414969668689,11.954067568828748 39.29414969668689,12.454067568828748 C 30.794149696686887,12.954067568828748 31.759141763882408,13.57018534764349 24.259141763882408,14.07018534764349 C 16.759141763882408,14.57018534764349 20.300602706486234,11.935192160522634 9.300602706486234,11.935192160522634 C -1.6993972935137656,11.935192160522634 0.6198643023798418,11.895308072795146 -7.380135697620158,11.895308072795146 C -15.380135697620158,11.895308072795146 -12.92143425104993,11.475790573961739 -24.42143425104993,11.475790573961739 C -35.92143425104993,11.475790573961739 -31.74435538964069,10.324541483901072 -40.87072683154456,10.008235744283713 C -49.84921679888007,9.708600279981333 -50.85749603359776,11.566941110592628 -61.35749603359776,9.566941110592628 C -71.85749603359776,7.566941110592628 -70.95974157722819,6.319776294913671 -79.2947415772282,7.986776294913671 C -81.7947415772282,8.486776294913671 -76.75,44.0 -76.75,44.0 C -76.75,44.0 11.0,123.25 11.0,123.25 C 11.0,123.25 100.0,40.0 100.0,40.0 C 100.0,40.0 101.31361698553431,-5.733708632757816 95.81361698553431,-2.7337086327578155 Z" id="path_98" inkscape:label="Path 1" style="fill-opacity:1.0;fill:url(#radialGradient_99);fill-rule:nonzero"/>
                     </g>
                  </g>
                  <g id="g_100" inkscape:label="f2" transform="matrix(1.0, 0.0, 0.0, 1.0, 322.731, 398.857)" style="fill-opacity:1.0;fill:url(#Gradient_ZTOdeYD6C3);fill-rule:nonzero">
                     <path d="M 44.961000000000006,-60.55633333333333 C 44.961000000000006,-60.55633333333333 64.832,13.931666666666668 64.832,13.931666666666668 C 64.832,13.931666666666668 -51.221000000000004,35.383 -51.221000000000004,35.383 C -51.221000000000004,35.383 -69.44133333333333,-44.394666666666666 -69.44133333333333,-44.394666666666666 C -69.44133333333333,-44.394666666666666 44.961000000000006,-60.55633333333333 44.961000000000006,-60.55633333333333 Z" id="path_101" inkscape:label="Path 1" style="fill-opacity:1.0;fill:url(#linearGradient_102);fill-rule:nonzero"/>
                  </g>
                  <g id="g_103" inkscape:label="str1" transform="matrix(1.0, 0.0, 0.0, 1.0, 367.522, 386.888)" style="stroke:url(#Gradient_ZdpSIo2CR6);stroke-opacity:1.0;stroke-width:18.0;stroke-miterlimit:0;stroke-linecap:round;stroke-linejoin:round">
                     <path d="M -16.455666666666666,-80.983 C -16.455666666666666,-80.983 0.2536666666666676,-49.681666666666665 0.2536666666666676,-49.681666666666665 C 0.2536666666666676,-49.681666666666665 20.325666666666667,26.021333333333338 20.325666666666667,26.021333333333338 C 20.325666666666667,26.021333333333338 15.463333333333333,84.438 15.463333333333333,84.438 " id="path_104" inkscape:label="Path 1" style=""/>
                  </g>
                  <g id="g_105" inkscape:label="str2" transform="matrix(1.0, 0.0, 0.0, 1.0, 255.636, 410.261)" style="stroke:url(#Gradient_WLpihO9S8o);stroke-opacity:1.0;stroke-width:18.0;stroke-miterlimit:0;stroke-linecap:round;stroke-linejoin:round">
                     <path d="M 15.191333333333333,79.31466666666667 C 15.191333333333333,79.31466666666667 17.53066666666667,23.17766666666667 17.53066666666667,23.17766666666667 C 17.53066666666667,23.17766666666667 -0.6999999999999984,-54.27766666666666 -0.6999999999999984,-54.27766666666666 C -0.6999999999999984,-54.27766666666666 -16.250333333333334,-80.73533333333333 -16.250333333333334,-80.73533333333333 " id="path_106" inkscape:label="Path 1" style=""/>
                  </g>
                  <g id="str3" inkscape:label="str3" transform="matrix(1.0, 0.0, 0.0, 1.0, 314.618, 398.665)" style="stroke:url(#Gradient_OMBWnUDtym);stroke-opacity:1.0;stroke-width:16.0;stroke-miterlimit:0;stroke-linecap:butt;stroke-linejoin:round">
                     <path d="M -134.459,23.205 C -134.459,23.205 -59.657,-42.518 -59.657,-42.518 C -59.657,-42.518 53.027,-61.617999999999995 53.027,-61.617999999999995 C 53.027,-61.617999999999995 134.522,-21.089 134.522,-21.089 C 134.522,-21.089 73.07266666666666,14.183666666666669 73.07266666666666,14.183666666666669 C 73.07266666666666,14.183666666666669 -41.428999999999995,34.643 -41.428999999999995,34.643 C -41.428999999999995,34.643 -134.459,23.205 -134.459,23.205 Z" id="path_107" inkscape:label="Path 1" style=""/>
                  </g>
                  <g id="g_108" inkscape:label="fx" transform="matrix(1.0, 0.0, 0.0, 1.0, 314.618, 398.269)" opacity="0.4" style="fill-opacity:1.0;fill:url(#Gradient_zXQf2X8uXF);fill-rule:nonzero">
                     <path d="M 36.44733333333333,-92.36366666666666 C 36.44733333333333,-92.36366666666666 134.522,-20.692 134.522,-20.692 C 134.522,-20.692 68.36733333333333,73.05733333333333 68.36733333333333,73.05733333333333 C 68.36733333333333,73.05733333333333 -43.791,91.30666666666667 -43.791,91.30666666666667 C -43.791,91.30666666666667 -134.459,23.601 -134.459,23.601 C -134.459,23.601 -75.23233333333334,-68.74333333333334 -75.23233333333334,-68.74333333333334 C -75.23233333333334,-68.74333333333334 36.44733333333333,-92.36366666666666 36.44733333333333,-92.36366666666666 Z" id="path_109" inkscape:label="Path 1" style="fill-opacity:1.0;fill:url(#linearGradient_110);fill-rule:nonzero"/>
                  </g>
                  <g id="g_111" inkscape:label="high" transform="matrix(1.0, 0.0, 0.0, 1.0, 307.782, 376.404)" opacity="0.5" style="stroke:rgb(255, 255, 255);stroke-opacity:1.0;stroke-width:18.0;stroke-miterlimit:0;stroke-linecap:round;stroke-linejoin:round">
                     <path d="M -115.495,42.772 C -115.495,42.772 -64.23899999999999,-34.937999999999995 -64.23899999999999,-34.937999999999995 C -64.23899999999999,-34.937999999999995 45.439,-60.303 45.439,-60.303 C 45.439,-60.303 130.77833333333334,1.1523333333333332 130.77833333333334,1.1523333333333332 C 130.77833333333334,1.1523333333333332 74.14366666666666,87.93533333333333 74.14366666666666,87.93533333333333 " id="path_112" inkscape:label="Path 1" style=""/>
                  </g>
                  <g id="g_113" inkscape:label="outl" transform="matrix(1.0, 0.0, 0.0, 1.0, 314.618, 398.269)" style="stroke:url(#Gradient_aM4CQIMWW7);stroke-opacity:1.0;stroke-width:18.0;stroke-miterlimit:0;stroke-linecap:round;stroke-linejoin:round">
                     <path d="M 36.44733333333333,-92.36366666666666 C 36.44733333333333,-92.36366666666666 134.522,-20.692 134.522,-20.692 C 134.522,-20.692 68.36733333333333,73.05733333333333 68.36733333333333,73.05733333333333 C 68.36733333333333,73.05733333333333 -43.791,91.30666666666667 -43.791,91.30666666666667 C -43.791,91.30666666666667 -134.459,23.601 -134.459,23.601 C -134.459,23.601 -75.23233333333334,-68.74333333333334 -75.23233333333334,-68.74333333333334 C -75.23233333333334,-68.74333333333334 36.44733333333333,-92.36366666666666 36.44733333333333,-92.36366666666666 Z" id="path_114" inkscape:label="Path 1" style=""/>
                  </g>
               </g>
            </g>
         </g>
      </g>
   </g>
</svg>
